<?xml version="1.0" encoding="UTF-8"?>
<!DOCTYPE svg PUBLIC "-//W3C//DTD SVG 1.1//EN" "http://www.w3.org/Graphics/SVG/1.1/DTD/svg11.dtd">
<svg xmlns="http://www.w3.org/2000/svg" version="1.1" width="3508px" height="2481px" style="shape-rendering:geometricPrecision; text-rendering:geometricPrecision; image-rendering:optimizeQuality; fill-rule:evenodd; clip-rule:evenodd" xmlns:xlink="http://www.w3.org/1999/xlink">
<g><path style="opacity:0.993" fill="#014089" d="M 1869.5,627.5 C 2022.05,668.535 2097.22,768.201 2095,926.5C 2090.16,987.01 2072.83,1043.68 2043,1096.5C 2012.71,1149.48 1975.55,1197.31 1931.5,1240C 1866.8,1301.03 1795.13,1352.36 1716.5,1394C 1580.82,1464 1437.48,1511 1286.5,1535C 1037.86,1573.18 787.864,1587.52 536.5,1578C 432.823,1574.48 330.156,1562.48 228.5,1542C 214.044,1538.8 199.71,1535.14 185.5,1531C 284.978,1533.54 384.478,1535.38 484,1536.5C 514.833,1536.04 545.666,1535.71 576.5,1535.5C 575.882,1446.17 575.715,1356.83 576,1267.5C 576.148,1223.24 586.481,1181.58 607,1142.5C 631.867,1102.79 667.367,1077.96 713.5,1068C 724.387,1065.59 735.387,1063.92 746.5,1063C 922.825,1061.53 1099.16,1061.03 1275.5,1061.5C 1275.5,1105.5 1275.5,1149.5 1275.5,1193.5C 1161.5,1193.33 1047.5,1193.5 933.5,1194C 919.515,1193.75 906.515,1197.08 894.5,1204C 884.959,1211.91 879.793,1222.08 879,1234.5C 878.333,1328.5 878.333,1422.5 879,1516.5C 986.448,1504.14 1092.95,1485.98 1198.5,1462C 1263.55,1446.7 1327.55,1427.87 1390.5,1405.5C 1391.5,1290.84 1391.83,1176.17 1391.5,1061.5C 1492.5,1061.5 1593.5,1061.5 1694.5,1061.5C 1694.17,1125.17 1694.5,1188.84 1695.5,1252.5C 1761.66,1207.52 1820.16,1153.86 1871,1091.5C 1910.11,1042.63 1938.77,987.965 1957,927.5C 1976.02,858.599 1973.35,790.599 1949,723.5C 1935.48,692.995 1915.98,666.828 1890.5,645C 1883.27,639.249 1876.27,633.416 1869.5,627.5 Z"/></g>
<g><path style="opacity:0.994" fill="#ec6c04" d="M 1539.5,695.5 C 1596.67,694.255 1642.84,715.921 1678,760.5C 1715.01,815.26 1719.34,872.593 1691,932.5C 1663.62,981.13 1622.12,1009.3 1566.5,1017C 1498.12,1022.06 1445.62,995.891 1409,938.5C 1386.34,897.582 1381.34,854.582 1394,809.5C 1418.8,741.19 1467.3,703.19 1539.5,695.5 Z"/></g>
<g><path style="opacity:0.995" fill="#014089" d="M 2101.5,1061.5 C 2240.17,1061.5 2378.83,1061.5 2517.5,1061.5C 2517.68,1105.51 2517.34,1149.51 2516.5,1193.5C 2402.83,1193.33 2289.17,1193.5 2175.5,1194C 2159.61,1193.55 2145.28,1197.88 2132.5,1207C 2125.81,1214.55 2121.98,1223.39 2121,1233.5C 2120.5,1281.83 2120.33,1330.17 2120.5,1378.5C 2252.5,1378.5 2384.5,1378.5 2516.5,1378.5C 2516.5,1421.83 2516.5,1465.17 2516.5,1508.5C 2384.5,1508.5 2252.5,1508.5 2120.5,1508.5C 2120.33,1566.83 2120.5,1625.17 2121,1683.5C 2123.81,1702.64 2134.64,1714.47 2153.5,1719C 2157.79,1719.91 2162.13,1720.58 2166.5,1721C 2283.17,1721.5 2399.83,1721.67 2516.5,1721.5C 2517.37,1765.49 2517.7,1809.49 2517.5,1853.5C 2343.5,1853.67 2169.5,1853.5 1995.5,1853C 1894.22,1845.39 1836.39,1791.23 1822,1690.5C 1820.67,1680.87 1819.67,1671.2 1819,1661.5C 1818.63,1585.33 1818.13,1509.17 1817.5,1433C 1817.83,1415.5 1818.17,1398 1818.5,1380.5C 1903.6,1327.48 1976.44,1260.82 2037,1180.5C 2063.68,1143.82 2085.18,1104.15 2101.5,1061.5 Z"/></g>
<g><path style="opacity:0.996" fill="#014089" d="M 2814.5,1061.5 C 2983.17,1061.5 3151.83,1061.5 3320.5,1061.5C 3320.5,1105.5 3320.5,1149.5 3320.5,1193.5C 3206.5,1193.33 3092.5,1193.5 2978.5,1194C 2964.51,1193.75 2951.51,1197.08 2939.5,1204C 2929.97,1211.89 2924.8,1222.06 2924,1234.5C 2923.5,1282.5 2923.33,1330.5 2923.5,1378.5C 3055.5,1378.5 3187.5,1378.5 3319.5,1378.5C 3319.5,1421.83 3319.5,1465.17 3319.5,1508.5C 3187.5,1508.5 3055.5,1508.5 2923.5,1508.5C 2923.33,1566.5 2923.5,1624.5 2924,1682.5C 2926.35,1702.19 2937.18,1714.35 2956.5,1719C 2960.79,1719.91 2965.13,1720.58 2969.5,1721C 3086.5,1721.5 3203.5,1721.67 3320.5,1721.5C 3320.5,1765.5 3320.5,1809.5 3320.5,1853.5C 3146.5,1853.67 2972.5,1853.5 2798.5,1853C 2702.82,1847.32 2645.65,1797.48 2627,1703.5C 2624.53,1690.27 2622.86,1676.93 2622,1663.5C 2621.33,1527.17 2621.33,1390.83 2622,1254.5C 2623.52,1216.43 2632.85,1180.43 2650,1146.5C 2671.85,1108.34 2704.02,1083.17 2746.5,1071C 2768.93,1065.06 2791.6,1061.89 2814.5,1061.5 Z"/></g>
<g><path style="opacity:0.996" fill="#014089" d="M 1693.5,1448.5 C 1694.5,1583.33 1694.83,1718.33 1694.5,1853.5C 1593.83,1853.5 1493.17,1853.5 1392.5,1853.5C 1392.5,1751.17 1392.5,1648.83 1392.5,1546.5C 1496.86,1525.67 1597.2,1493 1693.5,1448.5 Z"/></g>
<g><path style="opacity:0.994" fill="#014089" d="M 576.5,1603.5 C 677.165,1607.44 777.832,1607.44 878.5,1603.5C 878.333,1629.84 878.5,1656.17 879,1682.5C 881.351,1702.19 892.184,1714.35 911.5,1719C 915.795,1719.91 920.128,1720.58 924.5,1721C 1041.5,1721.5 1158.5,1721.67 1275.5,1721.5C 1275.5,1765.5 1275.5,1809.5 1275.5,1853.5C 1101.5,1853.67 927.5,1853.5 753.5,1853C 654.804,1846.31 597.304,1794.14 581,1696.5C 576.963,1665.64 575.463,1634.64 576.5,1603.5 Z"/></g>
</svg>
