<?xml version="1.0" encoding="utf-8"?>
<svg viewBox="0 0 525 525" xmlns="http://www.w3.org/2000/svg">
  <g transform="matrix(1, 0, 0, 1, -1.1368683772161603e-13, 0)">
    <title>Layer 1</title>
    <path id="svg_1" d="m203,0l120,0c111,0 202,90 202,203l0,120c0,111 -90,202 -203,202l-120,0c-110,0 -202,-90 -202,-203l0,-120c0,-110 90,-202 203,-202z" style="fill: rgb(71, 181, 189);"/>
  </g>
  <path d="M 128.358 232 L 114.324 232 C 110.27 232 106.869 230.489 104.121 227.467 C 101.374 224.444 100 220.622 100 215.998 C 100 211.379 101.328 207.557 103.985 204.533 C 106.639 201.511 109.999 200 114.062 200 L 142.185 200 C 146.248 200 149.652 201.508 152.401 204.522 C 155.148 207.54 156.522 211.354 156.522 215.963 L 156.522 311.749 C 156.522 316.361 155.187 320.222 152.518 323.333 C 149.849 326.446 146.473 328 142.391 328 C 138.337 328 134.984 326.489 132.334 323.468 C 129.682 320.446 128.358 316.623 128.358 312 L 128.358 232 Z M 213.043 312 L 213.043 264.001 C 213.043 259.468 214.398 255.667 217.106 252.6 C 219.815 249.533 223.171 248 227.174 248 L 269.565 248 L 269.565 232 L 227.174 232 C 223.091 232 219.716 230.489 217.046 227.467 C 214.379 224.444 213.043 220.622 213.043 215.998 C 213.043 211.379 214.379 207.557 217.046 204.533 C 219.716 201.511 223.091 200 227.174 200 L 283.696 200 C 287.7 200 291.056 201.534 293.764 204.6 C 296.473 207.668 297.826 211.468 297.826 215.998 L 297.826 264.001 C 297.826 268.534 296.473 272.333 293.764 275.401 C 291.056 278.467 287.7 280 283.696 280 L 241.304 280 L 241.304 296.001 L 283.696 296.001 C 287.777 296.001 291.154 297.513 293.822 300.534 C 296.492 303.557 297.826 307.378 297.826 312 C 297.826 316.623 296.495 320.446 293.834 323.468 C 291.174 326.489 287.809 328 283.739 328 L 227.39 328 C 223.321 328 219.913 326.489 217.165 323.468 C 214.417 320.446 213.043 316.623 213.043 312 Z M 410.871 328 L 354.348 328 C 350.266 328 346.89 326.489 344.221 323.468 C 341.552 320.446 340.217 316.623 340.217 312 C 340.217 307.378 341.552 303.557 344.221 300.534 C 346.89 297.513 350.266 296.001 354.348 296.001 L 396.739 296.001 L 396.739 280 L 382.609 280 C 378.84 280 375.543 278.401 372.717 275.201 C 369.891 272.001 368.478 268.267 368.478 264.001 C 368.478 259.734 369.891 256.001 372.717 252.798 C 375.543 249.6 378.84 248 382.609 248 L 396.739 248 L 396.739 232 L 354.348 232 C 350.266 232 346.89 230.489 344.221 227.467 C 341.552 224.444 340.217 220.622 340.217 215.998 C 340.217 211.379 341.552 207.557 344.221 204.533 C 346.89 201.511 350.266 200 354.348 200 L 410.871 200 C 414.873 200 418.23 201.534 420.938 204.6 C 423.646 207.668 425 211.468 425 215.998 L 425 312 C 425 316.533 423.646 320.334 420.938 323.401 C 418.23 326.468 414.873 328 410.871 328 Z" style="fill: rgb(255, 255, 255);" transform="matrix(1, 0, 0, 1, -1.1368683772161603e-13, 0)"/>
</svg>