<?xml version="1.0" encoding="utf-8"?>
<svg viewBox="0 0 525 525" xmlns="http://www.w3.org/2000/svg">
  <g transform="matrix(1, 0, 0, 1, -1.1368683772161603e-13, 0)">
    <title>Layer 1</title>
    <path id="svg_1" d="m203,0l120,0c111,0 202,90 202,203l0,120c0,111 -90,202 -203,202l-120,0c-110,0 -202,-90 -202,-203l0,-120c0,-110 90,-202 203,-202z" fill="#7882ff"/>
  </g>
  <path d="M 270 415 C 249.427 415 230.026 411.094 211.797 403.281 C 193.568 395.469 177.617 384.727 163.945 371.055 C 150.273 357.383 139.531 341.432 131.719 323.203 C 123.906 304.974 120 285.573 120 265 C 120 244.167 123.971 224.701 131.914 206.602 C 139.857 188.503 150.794 172.617 164.727 158.945 C 178.659 145.273 194.935 134.531 213.555 126.719 C 232.175 118.906 252.031 115 273.125 115 C 293.438 115 312.513 118.516 330.352 125.547 C 348.19 132.578 363.75 142.214 377.031 154.453 C 390.313 166.693 400.794 181.016 408.477 197.422 C 416.159 213.828 420 231.406 420 250.156 C 420 275.156 411.276 296.38 393.828 313.828 C 376.38 331.276 355.156 340 330.156 340 L 303.594 340 C 301.511 340 299.688 340.651 298.125 341.953 C 296.563 343.255 295.781 344.948 295.781 347.031 C 295.781 350.938 297.734 354.193 301.641 356.797 C 305.547 359.401 307.5 366.302 307.5 377.5 C 307.5 387.136 303.984 395.795 296.953 403.477 C 289.922 411.159 280.938 415 270 415 Z M 270 265 Z M 185.625 279.063 C 192.136 279.063 197.669 276.784 202.227 272.227 C 206.784 267.67 209.063 262.136 209.063 255.625 C 209.063 249.115 206.784 243.581 202.227 239.023 C 197.669 234.466 192.136 232.188 185.625 232.188 C 179.114 232.188 173.581 234.466 169.023 239.023 C 164.466 243.581 162.188 249.115 162.188 255.625 C 162.188 262.136 164.466 267.67 169.023 272.227 C 173.581 276.784 179.114 279.063 185.625 279.063 Z M 232.5 222.813 C 239.011 222.813 244.544 220.534 249.102 215.977 C 253.659 211.42 255.938 205.886 255.938 199.375 C 255.938 192.865 253.659 187.331 249.102 182.773 C 244.544 178.216 239.011 175.938 232.5 175.938 C 225.989 175.938 220.456 178.216 215.898 182.773 C 211.341 187.331 209.063 192.865 209.063 199.375 C 209.063 205.886 211.341 211.42 215.898 215.977 C 220.456 220.534 225.989 222.813 232.5 222.813 Z M 307.5 222.813 C 314.011 222.813 319.544 220.534 324.102 215.977 C 328.659 211.42 330.938 205.886 330.938 199.375 C 330.938 192.865 328.659 187.331 324.102 182.773 C 319.544 178.216 314.011 175.938 307.5 175.938 C 300.989 175.938 295.456 178.216 290.898 182.773 C 286.341 187.331 284.063 192.865 284.063 199.375 C 284.063 205.886 286.341 211.42 290.898 215.977 C 295.456 220.534 300.989 222.813 307.5 222.813 Z M 354.375 279.063 C 360.886 279.063 366.419 276.784 370.977 272.227 C 375.534 267.67 377.813 262.136 377.813 255.625 C 377.813 249.115 375.534 243.581 370.977 239.023 C 366.419 234.466 360.886 232.188 354.375 232.188 C 347.864 232.188 342.331 234.466 337.773 239.023 C 333.216 243.581 330.938 249.115 330.938 255.625 C 330.938 262.136 333.216 267.67 337.773 272.227 C 342.331 276.784 347.864 279.063 354.375 279.063 Z M 270 386.875 C 272.864 386.875 275.143 385.768 276.836 383.555 C 278.529 381.341 279.375 379.323 279.375 377.5 C 279.375 373.334 277.422 369.688 273.516 366.563 C 269.609 363.438 267.656 356.927 267.656 347.031 C 267.656 337.136 271.107 328.802 278.008 322.031 C 284.909 315.261 293.307 311.875 303.203 311.875 L 330.156 311.875 C 347.344 311.875 361.927 305.886 373.906 293.906 C 385.886 281.927 391.875 267.344 391.875 250.156 C 391.875 220.209 380.352 194.883 357.305 174.18 C 334.258 153.477 306.198 143.125 273.125 143.125 C 238.229 143.125 208.672 154.974 184.453 178.672 C 160.234 202.37 148.125 231.146 148.125 265 C 148.125 298.854 159.974 327.63 183.672 351.328 C 207.37 375.026 236.146 386.875 270 386.875 Z" style="fill: rgb(255, 255, 255);" transform="matrix(1, 0, 0, 1, -1.1368683772161603e-13, 0)"/>
</svg>