<?xml version="1.0" encoding="utf-8"?>
<svg viewBox="0 0 525 525" xmlns="http://www.w3.org/2000/svg">
  <g transform="matrix(1, 0, 0, 1, -1.1368683772161603e-13, 0)">
    <title>Layer 1</title>
    <path id="svg_1" d="m203,0l120,0c111,0 202,90 202,203l0,120c0,111 -90,202 -203,202l-120,0c-110,0 -202,-90 -202,-203l0,-120c0,-110 90,-202 203,-202z" fill="#7882ff"/>
  </g>
  <path d="M 368.048 249.899 C 364.917 249.899 361.982 248.79 359.242 246.572 C 356.502 244.355 354.871 241.55 354.35 238.158 C 353.045 232.939 351.48 227.917 349.653 223.089 C 347.826 218.263 345.609 213.762 342.999 209.587 C 341.173 206.717 340.456 203.455 340.847 199.802 C 341.238 196.15 342.608 193.28 344.956 191.192 C 348.349 187.8 352.327 186.3 356.894 186.691 C 361.46 187.082 364.787 189.235 366.874 193.149 C 370.527 199.411 373.527 205.934 375.876 212.718 C 378.224 219.502 380.311 226.416 382.138 233.461 C 383.181 237.897 382.268 241.745 379.398 245.007 C 376.528 248.269 372.744 249.899 368.048 249.899 Z M 272.159 385.317 C 272.159 381.925 273.268 378.925 275.486 376.315 C 277.704 373.706 280.378 372.01 283.51 371.227 C 288.206 369.923 292.837 368.357 297.404 366.531 C 301.97 364.705 306.34 362.356 310.515 359.486 C 313.385 357.66 316.386 356.942 319.517 357.333 C 322.648 357.725 325.387 359.095 327.736 361.443 C 331.128 364.835 332.563 368.553 332.041 372.597 C 331.519 376.642 329.431 379.838 325.779 382.186 C 319.778 385.839 313.776 389.231 307.775 392.362 C 301.774 395.493 295.642 397.841 289.38 399.407 C 284.945 400.712 280.966 399.864 277.443 396.863 C 273.921 393.863 272.159 390.014 272.159 385.317 Z M 347.305 339.917 C 345.217 337.83 343.978 335.155 343.587 331.894 C 343.195 328.632 343.782 325.566 345.348 322.696 C 347.957 318.261 350.175 313.564 352.001 308.606 C 353.828 303.649 355.393 298.561 356.698 293.342 C 357.22 289.951 358.85 287.146 361.59 284.928 C 364.33 282.71 367.265 281.601 370.396 281.601 C 375.354 281.601 379.202 283.232 381.942 286.493 C 384.682 289.755 385.53 293.604 384.486 298.039 C 382.659 305.084 380.572 311.998 378.224 318.782 C 375.876 325.566 372.875 331.959 369.222 337.96 C 367.135 341.613 363.873 343.635 359.438 344.026 C 355.002 344.418 350.957 343.048 347.305 339.917 Z M 225.585 399.015 C 196.101 392.232 171.966 376.902 153.179 353.028 C 134.393 329.154 125 301.953 125 271.425 C 125 234.896 137.655 203.912 162.964 178.472 C 188.273 153.032 219.323 140.312 256.113 140.312 L 264.723 140.312 L 249.068 124.657 C 246.198 121.787 244.763 118.395 244.763 114.481 C 244.763 110.567 246.198 107.176 249.068 104.305 C 251.938 101.435 255.265 100 259.048 100 C 262.832 100 266.158 101.435 269.028 104.305 L 310.123 145.4 C 311.428 146.705 312.406 148.14 313.059 149.705 C 313.711 151.271 314.037 152.967 314.037 154.793 C 314.037 156.881 313.711 158.707 313.059 160.273 C 312.406 161.838 311.428 163.273 310.123 164.578 L 269.028 205.282 C 266.158 208.152 262.832 209.587 259.048 209.587 C 255.265 209.587 251.938 208.152 249.068 205.282 C 246.198 202.412 244.763 199.085 244.763 195.301 C 244.763 191.518 246.198 188.192 249.068 185.321 L 265.897 168.492 L 256.113 168.492 C 227.151 168.492 202.755 178.472 182.924 198.432 C 163.094 218.393 153.179 242.854 153.179 271.816 C 153.179 295.56 160.485 316.695 175.097 335.22 C 189.708 353.746 208.495 365.879 231.456 371.619 C 234.587 372.402 237.196 374.098 239.283 376.707 C 241.371 379.316 242.414 382.186 242.414 385.317 C 242.414 389.753 240.719 393.406 237.326 396.276 C 233.934 399.146 230.021 400.059 225.585 399.015 Z" style="fill: rgb(255, 255, 255);" transform="matrix(1, 0, 0, 1, -1.1368683772161603e-13, 0)"/>
</svg>