<?xml version="1.0" encoding="utf-8"?>
<svg viewBox="0 0 525 525" xmlns="http://www.w3.org/2000/svg">
  <g>
    <title>Layer 1</title>
    <path id="path-1" d="M 203 0 L 323 0 C 434 0 525 90 525 203 L 525 323 C 525 434 435 525 322 525 L 202 525 C 92 525 0 435 0 322 L 0 202 C 0 92 90 0 203 0 Z" style="fill: rgb(25, 177, 212);">
      <title>red</title>
    </path>
  </g>
  <path d="M 160 319.553 L 192.52 352.073 C 195.502 355.054 196.992 358.532 196.992 362.507 C 196.992 366.481 195.502 369.914 192.52 372.805 C 189.63 375.786 186.197 377.276 182.222 377.276 C 178.248 377.276 174.77 375.786 171.789 372.805 L 114.065 315.081 C 112.71 313.618 111.694 312.033 111.016 310.325 C 110.339 308.618 110 306.789 110 304.837 C 110 302.886 110.339 301.057 111.016 299.35 C 111.694 297.642 112.71 296.111 114.065 294.756 L 171.789 237.033 C 174.77 234.051 178.225 232.561 182.154 232.561 C 186.084 232.561 189.604 234.051 192.715 237.033 C 195.566 240.013 196.992 243.469 196.992 247.398 C 196.992 251.328 195.502 254.783 192.52 257.764 L 160 290.285 L 264.878 290.285 C 269.024 290.285 272.5 291.678 275.305 294.467 C 278.11 297.256 279.512 300.711 279.512 304.833 C 279.512 308.955 278.11 312.439 275.305 315.285 C 272.5 318.13 269.024 319.553 264.878 319.553 L 160 319.553 Z M 360 221.992 L 255.122 221.992 C 250.976 221.992 247.5 220.598 244.695 217.809 C 241.89 215.021 240.488 211.565 240.488 207.443 C 240.488 203.321 241.89 199.837 244.695 196.992 C 247.5 194.146 250.976 192.724 255.122 192.724 L 360 192.724 L 327.48 160.203 C 324.499 157.222 323.008 153.744 323.008 149.77 C 323.008 145.795 324.499 142.362 327.48 139.472 C 330.371 136.49 333.803 135 337.778 135 C 341.752 135 345.23 136.49 348.211 139.472 L 405.935 197.195 C 407.29 198.659 408.307 200.244 408.984 201.951 C 409.661 203.659 410 205.488 410 207.439 C 410 209.39 409.661 211.22 408.984 212.927 C 408.307 214.634 407.29 216.165 405.935 217.52 L 348.211 275.244 C 345.329 278.225 341.966 279.648 338.123 279.512 C 334.28 279.376 330.802 277.818 327.692 274.837 C 324.841 271.856 323.415 268.401 323.415 264.472 C 323.415 260.542 324.905 257.087 327.886 254.106 L 360 221.992 Z" style="fill: rgb(255, 255, 255);"/>
</svg>