<?xml version="1.0" encoding="utf-8"?>
<svg viewBox="0 0 525 525" xmlns="http://www.w3.org/2000/svg">
  <g transform="matrix(1, 0, 0, 1, -1.1368683772161603e-13, 0)">
    <title>Layer 1</title>
    <path id="svg_1" d="m203,0l120,0c111,0 202,90 202,203l0,120c0,111 -90,202 -203,202l-120,0c-110,0 -202,-90 -202,-203l0,-120c0,-110 90,-202 203,-202z" style="fill: rgb(255, 120, 146);"/>
  </g>
  <path d="M 263.975 251.624 L 239.071 270.581 C 237.831 271.573 236.53 271.573 235.167 270.581 C 233.804 269.59 233.371 268.351 233.866 266.864 L 243.531 236.012 L 217.883 215.939 C 216.643 214.948 216.272 213.709 216.768 212.222 C 217.263 210.735 218.378 209.992 220.113 209.992 L 250.965 209.992 L 260.63 179.511 C 261.126 178.024 262.241 177.281 263.975 177.281 C 265.71 177.281 266.825 178.024 267.321 179.511 L 276.986 209.992 L 307.838 209.992 C 309.572 209.992 310.688 210.735 311.183 212.222 C 311.679 213.709 311.307 214.948 310.068 215.939 L 284.42 236.012 L 294.085 266.864 C 294.58 268.351 294.146 269.59 292.784 270.581 C 291.42 271.573 290.119 271.573 288.88 270.581 L 263.975 251.624 Z M 263.975 395.478 L 199.669 409.603 C 195.456 410.595 191.677 409.728 188.331 407.001 C 184.986 404.276 183.313 400.806 183.313 396.593 L 183.313 309.24 C 172.657 300.071 164.108 287.805 157.665 272.44 C 151.221 257.076 148 241.588 148 225.976 C 148 193.76 159.275 166.377 181.826 143.826 C 204.377 121.276 231.76 110 263.975 110 C 296.191 110 323.574 121.276 346.125 143.826 C 368.675 166.377 379.951 193.76 379.951 225.976 C 379.951 241.836 376.977 257.386 371.03 272.626 C 365.082 287.866 356.161 300.195 344.266 309.612 L 344.266 396.593 C 344.266 400.806 342.594 404.276 339.248 407.001 C 335.903 409.728 332.123 410.595 327.911 409.603 L 263.975 395.478 Z M 263.975 315.187 C 288.756 315.187 309.82 306.514 327.167 289.167 C 344.514 271.821 353.187 250.757 353.187 225.976 C 353.187 201.195 344.514 180.131 327.167 162.784 C 309.82 145.437 288.756 136.764 263.975 136.764 C 239.194 136.764 218.13 145.437 200.784 162.784 C 183.437 180.131 174.764 201.195 174.764 225.976 C 174.764 250.757 183.437 271.821 200.784 289.167 C 218.13 306.514 239.194 315.187 263.975 315.187 Z M 210.077 379.866 L 263.975 367.971 L 317.503 379.866 L 317.503 328.569 C 309.325 333.03 300.713 336.375 291.668 338.606 C 282.623 340.836 273.392 341.951 263.975 341.951 C 254.558 341.951 245.266 340.898 236.097 338.791 C 226.928 336.685 218.254 333.278 210.077 328.569 L 210.077 379.866 Z M 263.975 353.846 Z" style="fill: rgb(255, 255, 255);" transform="matrix(1, 0, 0, 1, -1.1368683772161603e-13, 0)"/>
</svg>