<?xml version="1.0" encoding="utf-8"?>
<svg viewBox="0 0 525 525" xmlns="http://www.w3.org/2000/svg">
  <g>
    <title>Layer 1</title>
    <path id="svg_1" d="m203,0l120,0c111,0 202,90 202,203l0,120c0,111 -90,202 -203,202l-120,0c-110,0 -202,-90 -202,-203l0,-120c0,-110 90,-202 203,-202z" style="fill: rgb(245, 84, 84);"/>
  </g>
  <path d="M 183.125 138.125 L 183.125 203.75 L 183.125 138.125 L 183.125 381.875 L 183.125 378.555 L 183.125 381.875 L 183.125 138.125 Z M 182.932 410 C 175.248 410 168.672 407.246 163.203 401.738 C 157.734 396.23 155 389.609 155 381.875 L 155 138.125 C 155 130.391 157.754 123.77 163.262 118.262 C 168.77 112.754 175.391 110 183.125 110 L 293.281 110 C 296.985 110 300.515 110.651 303.872 111.953 C 307.228 113.255 310.338 115.339 313.203 118.203 L 371.797 176.797 C 374.661 179.662 376.745 182.772 378.047 186.129 C 379.349 189.485 380 193.015 380 196.719 L 380 254.141 C 380 258.125 378.66 261.465 375.981 264.16 C 373.301 266.855 369.981 268.203 366.02 268.203 C 362.059 268.203 358.711 266.855 355.977 264.16 C 353.242 261.465 351.875 258.125 351.875 254.141 L 351.875 203.75 L 314.375 203.75 C 306.641 203.75 300.02 200.996 294.512 195.488 C 289.004 189.98 286.25 183.359 286.25 175.625 L 286.25 138.125 L 183.125 138.125 L 183.125 381.875 L 269.398 381.875 C 273.341 381.875 276.68 383.215 279.414 385.894 C 282.148 388.574 283.516 391.894 283.516 395.855 C 283.516 399.816 282.177 403.164 279.499 405.898 C 276.822 408.633 273.504 410 269.546 410 L 182.932 410 Z M 361.25 373.672 L 344.063 390.859 C 341.198 393.724 337.943 395.091 334.297 394.961 C 330.651 394.831 327.396 393.334 324.531 390.469 C 321.666 387.604 320.234 384.284 320.234 380.508 C 320.234 376.732 321.666 373.412 324.531 370.547 L 341.328 353.75 L 324.141 336.563 C 321.276 333.698 319.909 330.378 320.039 326.602 C 320.169 322.826 321.666 319.505 324.531 316.641 C 327.396 313.776 330.716 312.344 334.492 312.344 C 338.268 312.344 341.588 313.776 344.453 316.641 L 361.25 333.828 L 378.438 316.641 C 381.302 313.776 384.622 312.344 388.398 312.344 C 392.174 312.344 395.495 313.776 398.359 316.641 C 401.224 319.505 402.656 322.826 402.656 326.602 C 402.656 330.378 401.224 333.698 398.359 336.563 L 381.172 353.75 L 398.359 370.938 C 401.224 373.802 402.656 377.057 402.656 380.703 C 402.656 384.349 401.224 387.604 398.359 390.469 C 395.495 393.334 392.174 394.766 388.398 394.766 C 384.622 394.766 381.302 393.334 378.438 390.469 L 361.25 373.672 Z" style="fill: rgb(255, 255, 255);"/>
</svg>