<?xml version="1.0" encoding="utf-8"?>
<svg viewBox="0 0 525 525" xmlns="http://www.w3.org/2000/svg">
  <g transform="matrix(1, 0, 0, 1, -1.1368683772161603e-13, 0)">
    <title>Layer 1</title>
    <path id="svg_1" d="m203,0l120,0c111,0 202,90 202,203l0,120c0,111 -90,202 -203,202l-120,0c-110,0 -202,-90 -202,-203l0,-120c0,-110 90,-202 203,-202z" fill="#7882ff"/>
  </g>
  <path d="M 161.835 348.195 C 176.697 348.195 191.165 349.85 205.238 353.158 C 219.31 356.466 233.113 361.128 246.647 367.143 L 246.647 162.331 C 233.715 155.414 220.252 150.376 206.259 147.218 C 192.267 144.06 178.122 142.481 163.825 142.481 C 152.874 142.481 141.985 143.383 131.158 145.188 C 120.331 146.992 110.106 150.298 100.481 155.104 L 100.481 359.023 C 110.106 354.812 120.105 351.955 130.481 350.451 C 140.857 348.948 151.308 348.195 161.835 348.195 Z M 279.128 367.143 C 292.662 361.128 306.465 356.466 320.537 353.158 C 334.609 349.85 349.077 348.195 363.94 348.195 C 374.466 348.195 384.917 348.948 395.293 350.451 C 405.669 351.955 415.669 354.812 425.293 359.023 L 425.293 155.113 C 414.767 151.203 403.866 148.12 392.591 145.865 C 381.315 143.609 369.961 142.481 358.526 142.481 C 344.692 142.481 331.158 144.21 317.925 147.669 C 304.692 151.128 291.759 156.015 279.128 162.331 L 279.128 367.143 Z M 262.887 410 C 258.978 410 255.444 409.098 252.286 407.293 C 249.128 405.489 245.862 403.684 242.487 401.88 C 230.523 394.963 217.927 389.699 204.698 386.09 C 191.471 382.481 177.934 380.677 164.09 380.677 C 154.466 380.677 144.767 381.278 134.992 382.481 C 125.218 383.684 115.82 386.24 106.797 390.15 C 97.474 394.361 88.677 394.887 80.406 391.729 C 72.135 388.571 68 382.932 68 374.812 L 68 147.895 C 68 143.684 69.203 139.85 71.609 136.391 C 74.015 132.932 77.023 130.151 80.632 128.045 C 93.263 120.827 106.554 116.015 120.503 113.609 C 134.452 111.203 148.681 110 163.188 110 C 180.632 110 197.248 111.805 213.038 115.414 C 228.827 119.023 245.444 125.338 262.887 134.361 C 280.331 125.338 296.947 119.023 312.737 115.414 C 328.526 111.805 345.143 110 362.586 110 C 375.962 110 389.081 111.128 401.942 113.383 C 414.803 115.639 427.098 119.474 438.827 124.887 C 443.94 127.293 448.451 130.376 452.361 134.135 C 456.271 137.895 458.226 142.481 458.226 147.895 L 458.226 374.811 C 458.226 382.03 454.692 387.293 447.624 390.602 C 440.557 393.91 432.962 394.06 424.842 391.053 C 414.316 387.143 403.564 384.436 392.586 382.932 C 381.609 381.429 370.557 380.677 359.429 380.677 C 345.999 380.677 332.866 382.406 320.032 385.865 C 307.199 389.323 295.068 394.662 283.639 401.88 C 280.331 403.985 276.99 405.865 273.616 407.519 C 270.242 409.173 266.666 410 262.887 410 Z M 173.564 256.617 Z M 300.782 197.068 C 300.782 192.857 302.06 189.098 304.617 185.789 C 307.173 182.481 310.557 180.376 314.767 179.474 C 322.286 177.97 329.692 176.767 336.987 175.865 C 344.282 174.962 351.954 174.511 360.003 174.511 C 365.034 174.511 370.229 174.762 375.588 175.263 C 380.947 175.765 386.237 176.416 391.459 177.218 C 395.068 177.819 398 179.554 400.256 182.423 C 402.511 185.292 403.639 188.519 403.639 192.105 C 403.639 197.218 401.835 201.429 398.226 204.737 C 394.617 208.045 390.256 209.355 385.143 208.668 C 380.932 208.152 376.752 207.669 372.601 207.218 C 368.45 206.767 364.233 206.541 359.948 206.541 C 352.985 206.541 346.271 206.917 339.805 207.669 C 333.339 208.421 326.816 209.679 320.235 211.444 C 315.086 212.988 310.557 212.256 306.647 209.248 C 302.737 206.24 300.782 202.18 300.782 197.068 Z M 301.684 303.083 C 301.684 298.872 302.963 295.113 305.519 291.805 C 308.075 288.496 311.459 286.391 315.669 285.489 C 323.188 283.985 330.595 282.782 337.889 281.88 C 345.184 280.977 352.856 280.526 360.905 280.526 C 365.936 280.526 371.131 280.777 376.49 281.278 C 381.849 281.78 387.14 282.431 392.361 283.233 C 395.97 283.834 398.902 285.569 401.158 288.438 C 403.414 291.307 404.541 294.534 404.541 298.12 C 404.541 303.233 402.737 307.444 399.128 310.752 C 395.519 314.06 391.158 315.371 386.045 314.683 C 381.835 314.167 377.654 313.684 373.503 313.233 C 369.352 312.782 365.135 312.556 360.85 312.556 C 353.887 312.556 347.173 312.932 340.707 313.684 C 334.241 314.436 327.718 315.694 321.138 317.459 C 315.989 319.003 311.459 318.271 307.549 315.263 C 303.639 312.255 301.684 308.195 301.684 303.083 Z M 301.684 250.301 C 301.684 246.09 302.963 242.331 305.519 239.023 C 308.075 235.714 311.459 233.609 315.669 232.707 C 323.188 231.203 330.595 230 337.889 229.098 C 345.184 228.195 352.856 227.744 360.905 227.744 C 365.936 227.744 371.131 227.995 376.49 228.496 C 381.849 228.998 387.14 229.649 392.361 230.451 C 395.97 231.052 398.902 232.788 401.158 235.656 C 403.414 238.525 404.541 241.752 404.541 245.338 C 404.541 250.451 402.737 254.662 399.128 257.97 C 395.519 261.278 391.158 262.589 386.045 261.901 C 381.835 261.385 377.654 260.902 373.503 260.451 C 369.352 260 365.135 259.774 360.85 259.774 C 353.887 259.774 347.173 260.15 340.707 260.902 C 334.241 261.654 327.718 262.912 321.138 264.677 C 315.989 266.221 311.459 265.489 307.549 262.481 C 303.639 259.474 301.684 255.413 301.684 250.301 Z" style="fill: rgb(255, 255, 255);" transform="matrix(1, 0, 0, 1, -1.1368683772161603e-13, 0)"/>
</svg>