<?xml version="1.0" encoding="utf-8"?>
<svg viewBox="0 0 525 525" xmlns="http://www.w3.org/2000/svg">
  <g>
    <title>Layer 1</title>
    <path id="path-1" d="M 203 0 L 323 0 C 434 0 525 90 525 203 L 525 323 C 525 434 435 525 322 525 L 202 525 C 92 525 0 435 0 322 L 0 202 C 0 92 90 0 203 0 Z" style="fill: rgb(25, 101, 212);">
      <title>red</title>
    </path>
  </g>
  <path d="M 312.5 349.375 C 315 349.375 317.188 348.438 319.063 346.563 C 320.938 344.688 321.875 342.5 321.875 340 C 321.875 337.5 320.938 335.313 319.063 333.438 C 317.188 331.563 315 330.625 312.5 330.625 C 310 330.625 307.813 331.563 305.938 333.438 C 304.063 335.313 303.125 337.5 303.125 340 C 303.125 342.5 304.063 344.688 305.938 346.563 C 307.813 348.438 310 349.375 312.5 349.375 Z M 350 349.375 C 352.5 349.375 354.688 348.438 356.563 346.563 C 358.438 344.688 359.375 342.5 359.375 340 C 359.375 337.5 358.438 335.313 356.563 333.438 C 354.688 331.563 352.5 330.625 350 330.625 C 347.5 330.625 345.313 331.563 343.438 333.438 C 341.563 335.313 340.625 337.5 340.625 340 C 340.625 342.5 341.563 344.688 343.438 346.563 C 345.313 348.438 347.5 349.375 350 349.375 Z M 387.5 349.375 C 390 349.375 392.188 348.438 394.063 346.563 C 395.938 344.688 396.875 342.5 396.875 340 C 396.875 337.5 395.938 335.313 394.063 333.438 C 392.188 331.563 390 330.625 387.5 330.625 C 385 330.625 382.813 331.563 380.938 333.438 C 379.063 335.313 378.125 337.5 378.125 340 C 378.125 342.5 379.063 344.688 380.938 346.563 C 382.813 348.438 385 349.375 387.5 349.375 Z M 153.125 377.5 C 145.391 377.5 138.77 374.746 133.262 369.238 C 127.754 363.73 125 357.109 125 349.375 L 125 143.125 C 125 135.391 127.754 128.77 133.262 123.262 C 138.77 117.754 145.391 115 153.125 115 L 359.375 115 C 367.109 115 373.73 117.754 379.238 123.262 C 384.746 128.77 387.5 135.391 387.5 143.125 L 387.5 222.812 C 387.5 226.797 386.16 230.137 383.481 232.832 C 380.801 235.527 377.481 236.875 373.52 236.875 C 369.559 236.875 366.211 235.527 363.477 232.832 C 360.742 230.137 359.375 226.797 359.375 222.812 L 359.375 143.125 L 153.125 143.125 L 153.125 349.375 L 232.813 349.375 C 236.797 349.375 240.137 350.715 242.832 353.394 C 245.527 356.074 246.875 359.394 246.875 363.355 C 246.875 367.316 245.527 370.664 242.832 373.398 C 240.137 376.133 236.797 377.5 232.813 377.5 L 153.125 377.5 Z M 153.125 340 L 153.125 349.375 L 153.125 143.125 L 153.125 237.656 L 153.125 236.875 L 153.125 340 Z M 181.25 307.105 C 181.25 311.066 182.598 314.414 185.293 317.148 C 187.988 319.883 191.328 321.25 195.313 321.25 L 234.375 321.25 C 238.359 321.25 241.699 319.91 244.395 317.231 C 247.09 314.551 248.438 311.231 248.438 307.27 C 248.438 303.309 247.09 299.961 244.395 297.227 C 241.699 294.492 238.359 293.125 234.375 293.125 L 195.313 293.125 C 191.328 293.125 187.988 294.465 185.293 297.144 C 182.598 299.824 181.25 303.144 181.25 307.105 Z M 181.25 246.168 C 181.25 250.129 182.598 253.477 185.293 256.211 C 187.988 258.945 191.328 260.313 195.313 260.313 L 279.688 260.313 C 283.672 260.313 287.012 258.973 289.707 256.293 C 292.402 253.614 293.75 250.293 293.75 246.332 C 293.75 242.371 292.402 239.023 289.707 236.289 C 287.012 233.555 283.672 232.187 279.688 232.187 L 195.313 232.187 C 191.328 232.187 187.988 233.527 185.293 236.207 C 182.598 238.886 181.25 242.207 181.25 246.168 Z M 181.25 185.23 C 181.25 189.191 182.598 192.539 185.293 195.273 C 187.988 198.008 191.328 199.375 195.313 199.375 L 317.188 199.375 C 321.172 199.375 324.512 198.035 327.207 195.356 C 329.902 192.676 331.25 189.356 331.25 185.395 C 331.25 181.434 329.902 178.086 327.207 175.352 C 324.512 172.617 321.172 171.25 317.188 171.25 L 195.313 171.25 C 191.328 171.25 187.988 172.59 185.293 175.269 C 182.598 177.949 181.25 181.269 181.25 185.23 Z M 349.912 415 C 329.137 415 311.458 407.679 296.875 393.037 C 282.291 378.395 275 360.686 275 339.912 C 275 319.137 282.321 301.458 296.963 286.875 C 311.605 272.292 329.314 265 350.088 265 C 370.863 265 388.541 272.321 403.125 286.963 C 417.708 301.605 425 319.314 425 340.088 C 425 360.863 417.679 378.542 403.037 393.125 C 388.395 407.708 370.686 415 349.912 415 Z" style="fill: rgb(255, 255, 255);"/>
</svg>