<?xml version="1.0" encoding="utf-8"?>
<svg viewBox="0 0 525 525" xmlns="http://www.w3.org/2000/svg">
  <g>
    <title>Layer 1</title>
    <path id="svg_1" d="m203,0l120,0c111,0 202,90 202,203l0,120c0,111 -90,202 -203,202l-120,0c-110,0 -202,-90 -202,-203l0,-120c0,-110 90,-202 203,-202z" style="fill: rgb(72, 189, 84);"/>
  </g>
  <path d="M 154.032 405 C 146.048 405 139.214 402.157 133.528 396.472 C 127.843 390.786 125 383.952 125 375.968 L 125 163.065 C 125 155.081 127.843 148.246 133.528 142.56 C 139.214 136.875 146.048 134.032 154.032 134.032 L 222.984 134.032 C 225.135 125.699 229.637 118.777 236.492 113.266 C 243.347 107.756 251.344 105 260.484 105 C 269.624 105 277.621 107.756 284.476 113.266 C 291.331 118.777 295.833 125.699 297.984 134.032 L 366.935 134.032 C 374.919 134.032 381.754 136.875 387.44 142.56 C 393.125 148.246 395.968 155.081 395.968 163.065 L 395.968 375.968 C 395.968 383.952 393.125 390.786 387.44 396.472 C 381.754 402.157 374.919 405 366.935 405 L 154.032 405 Z M 154.032 375.968 L 366.935 375.968 L 366.935 163.065 L 154.032 163.065 L 154.032 375.968 Z M 197.581 346.935 L 284.677 346.935 C 288.79 346.935 292.238 345.553 295.02 342.787 C 297.802 340.021 299.194 336.593 299.194 332.504 C 299.194 328.416 297.802 324.96 295.02 322.137 C 292.238 319.315 288.79 317.903 284.677 317.903 L 197.581 317.903 C 193.468 317.903 190.02 319.286 187.238 322.052 C 184.456 324.818 183.065 328.246 183.065 332.334 C 183.065 336.423 184.456 339.879 187.238 342.702 C 190.02 345.524 193.468 346.935 197.581 346.935 Z M 197.581 284.032 L 323.387 284.032 C 327.5 284.032 330.948 282.65 333.73 279.883 C 336.512 277.117 337.903 273.69 337.903 269.601 C 337.903 265.513 336.512 262.056 333.73 259.234 C 330.948 256.411 327.5 255 323.387 255 L 197.581 255 C 193.468 255 190.02 256.383 187.238 259.149 C 184.456 261.915 183.065 265.342 183.065 269.431 C 183.065 273.52 184.456 276.976 187.238 279.798 C 190.02 282.621 193.468 284.032 197.581 284.032 Z M 197.581 221.129 L 323.387 221.129 C 327.5 221.129 330.948 219.746 333.73 216.98 C 336.512 214.214 337.903 210.787 337.903 206.698 C 337.903 202.609 336.512 199.153 333.73 196.331 C 330.948 193.508 327.5 192.097 323.387 192.097 L 197.581 192.097 C 193.468 192.097 190.02 193.48 187.238 196.246 C 184.456 199.012 183.065 202.439 183.065 206.528 C 183.065 210.617 184.456 214.073 187.238 216.895 C 190.02 219.718 193.468 221.129 197.581 221.129 Z M 260.484 153.387 C 263.28 153.387 265.592 152.473 267.419 150.645 C 269.248 148.817 270.161 146.506 270.161 143.71 C 270.161 140.914 269.248 138.602 267.419 136.774 C 265.592 134.946 263.28 134.032 260.484 134.032 C 257.688 134.032 255.377 134.946 253.548 136.774 C 251.721 138.602 250.806 140.914 250.806 143.71 C 250.806 146.506 251.721 148.817 253.548 150.645 C 255.377 152.473 257.688 153.387 260.484 153.387 Z M 154.032 375.968 L 154.032 163.065 L 154.032 375.968 Z" style="fill: rgb(255, 255, 255);"/>
</svg>