<?xml version="1.0" encoding="utf-8"?>
<svg viewBox="0 0 525 525" xmlns="http://www.w3.org/2000/svg">
  <g transform="matrix(1, 0, 0, 1, -1.1368683772161603e-13, 0)">
    <title>Layer 1</title>
    <path id="svg_1" d="m203,0l120,0c111,0 202,90 202,203l0,120c0,111 -90,202 -203,202l-120,0c-110,0 -202,-90 -202,-203l0,-120c0,-110 90,-202 203,-202z" fill="#7882ff"/>
  </g>
  <path d="M 335 397.5 L 335 360 L 185 360 C 178.125 360 172.24 357.552 167.344 352.656 C 162.448 347.76 160 341.875 160 335 L 160 185 L 122.591 185 C 119.058 185 116.076 183.809 113.646 181.427 C 111.215 179.045 110 176.094 110 172.573 C 110 169.052 111.198 166.092 113.594 163.691 C 115.99 161.291 118.958 160.091 122.5 160.091 L 160 160.091 L 160 122.523 C 160 118.975 161.198 116.001 163.594 113.6 C 165.99 111.2 168.958 110 172.5 110 C 176.042 110 179.01 111.198 181.406 113.594 C 183.802 115.99 185 118.958 185 122.5 L 185 335 L 397.5 335 C 401.042 335 404.01 336.191 406.406 338.573 C 408.802 340.955 410 343.906 410 347.427 C 410 350.948 408.802 353.908 406.406 356.309 C 404.01 358.709 401.042 359.909 397.5 359.909 L 360 359.909 L 360 397.477 C 360 401.025 358.802 403.999 356.406 406.4 C 354.01 408.8 351.042 410 347.5 410 C 343.958 410 340.99 408.802 338.594 406.406 C 336.198 404.01 335 401.042 335 397.5 Z M 335 310 L 335 185 L 210 185 L 210 160 L 335 160 C 341.875 160 347.76 162.448 352.656 167.344 C 357.552 172.24 360 178.125 360 185 L 360 310 L 335 310 Z" style="fill: rgb(255, 255, 255);" transform="matrix(1, 0, 0, 1, -1.1368683772161603e-13, 0)"/>
</svg>