<?xml version="1.0" encoding="utf-8"?>
<svg viewBox="0 0 525 525" xmlns="http://www.w3.org/2000/svg">
  <g transform="matrix(1, 0, 0, 1, -1.1368683772161603e-13, 0)">
    <title>Layer 1</title>
    <path id="svg_1" d="m203,0l120,0c111,0 202,90 202,203l0,120c0,111 -90,202 -203,202l-120,0c-110,0 -202,-90 -202,-203l0,-120c0,-110 90,-202 203,-202z" style="fill: rgb(255, 120, 146);"/>
  </g>
  <path d="M 264.95 410 C 230.238 410 200.732 397.85 176.433 373.551 C 152.134 349.253 139.984 319.746 139.984 285.034 C 139.984 268.745 143.656 252.657 150.999 236.769 C 158.342 220.882 167.554 205.594 178.636 190.908 C 189.717 176.222 201.666 162.47 214.483 149.653 C 227.3 136.836 239.183 125.488 250.131 115.607 C 252.267 113.739 254.603 112.337 257.14 111.402 C 259.677 110.467 262.281 110 264.95 110 C 267.621 110 270.158 110.467 272.561 111.402 C 274.964 112.337 277.234 113.872 279.37 116.008 C 290.051 125.888 301.8 137.236 314.617 150.053 C 327.434 162.87 339.45 176.622 350.665 191.308 C 361.88 205.995 371.226 221.282 378.702 237.17 C 386.179 253.058 389.917 269.012 389.917 285.034 C 389.917 319.746 377.768 349.253 353.469 373.551 C 329.17 397.85 299.664 410 264.95 410 Z M 264.95 381.162 C 291.653 381.162 314.35 371.816 333.041 353.124 C 351.733 334.433 361.079 311.736 361.079 285.034 C 361.079 266.876 353.869 246.983 339.45 225.354 C 325.031 203.725 300.198 175.421 264.95 140.44 C 229.703 175.421 204.87 203.725 190.451 225.354 C 176.032 246.983 168.822 266.876 168.822 285.034 C 168.822 311.736 178.169 334.433 196.86 353.124 C 215.552 371.816 238.249 381.162 264.95 381.162 Z M 264.95 256.195 Z M 276.165 361.135 C 278.302 360.868 280.171 359.867 281.773 358.131 C 283.375 356.396 284.176 354.192 284.176 351.522 C 284.176 348.585 283.109 346.182 280.972 344.313 C 278.836 342.443 276.299 341.776 273.362 342.31 C 257.875 344.446 243.656 340.841 230.705 331.496 C 217.754 322.15 210.078 309.466 207.674 293.445 C 207.407 291.041 206.406 289.039 204.67 287.437 C 202.935 285.835 200.865 285.034 198.462 285.034 C 195.525 285.034 193.055 286.102 191.052 288.238 C 189.05 290.374 188.315 292.911 188.849 295.848 C 191.787 316.675 201.666 333.498 218.488 346.315 C 235.311 359.132 254.537 364.072 276.165 361.135 Z" style="fill: rgb(255, 255, 255);" transform="matrix(1, 0, 0, 1, -1.1368683772161603e-13, 0)"/>
</svg>