<?xml version="1.0" encoding="utf-8"?>
<svg viewBox="0 0 525 525" xmlns="http://www.w3.org/2000/svg">
  <g transform="matrix(1, 0, 0, 1, -1.1368683772161603e-13, 0)">
    <title>Layer 1</title>
    <path id="svg_1" d="m203,0l120,0c111,0 202,90 202,203l0,120c0,111 -90,202 -203,202l-120,0c-110,0 -202,-90 -202,-203l0,-120c0,-110 90,-202 203,-202z" style="fill: rgb(255, 120, 146);"/>
  </g>
  <g transform="matrix(1, 0, 0, 1, -1.1368683772161603e-13, 0)"/>
  <g transform="matrix(1, 0, 0, 1, -1.1368683772161603e-13, 0)"/>
  <path d="M 356.989 377.905 L 426.528 377.905 C 430.986 377.905 434.775 379.465 437.895 382.585 C 441.015 385.706 442.575 389.495 442.575 393.952 C 442.575 398.41 441.015 402.199 437.895 405.319 C 434.775 408.44 430.986 410 426.528 410 L 324.893 410 L 356.989 377.905 Z M 168.876 410 C 166.498 410 164.343 409.554 162.412 408.663 C 160.48 407.771 158.771 406.582 157.286 405.097 L 109.589 357.4 C 103.348 351.159 100.153 343.655 100.005 334.889 C 99.856 326.122 103.051 318.47 109.589 311.932 L 301.714 119.807 C 308.252 113.269 315.83 110 324.448 110 C 333.066 110 340.644 113.269 347.182 119.807 L 433.214 205.84 C 439.455 212.08 442.65 219.584 442.798 228.351 C 442.947 237.118 439.752 244.77 433.214 251.308 L 279.425 405.097 C 277.94 406.582 276.231 407.771 274.299 408.663 C 272.368 409.554 270.213 410 267.835 410 L 168.876 410 Z M 261.149 377.905 L 410.48 228.574 L 324.448 142.541 L 132.323 334.666 L 175.562 377.905 L 261.149 377.905 Z M 271.402 281.62 Z" style="fill: rgb(255, 255, 255);" transform="matrix(1, 0, 0, 1, -1.1368683772161603e-13, 0)"/>
</svg>