<?xml version="1.0" encoding="utf-8"?>
<svg viewBox="0 0 525 525" xmlns="http://www.w3.org/2000/svg">
  <g transform="matrix(1, 0, 0, 1, -1.1368683772161603e-13, 0)">
    <title>Layer 1</title>
    <path id="svg_1" d="m203,0l120,0c111,0 202,90 202,203l0,120c0,111 -90,202 -203,202l-120,0c-110,0 -202,-90 -202,-203l0,-120c0,-110 90,-202 203,-202z" fill="#7882ff"/>
  </g>
  <path d="M 155.268 406.875 C 146.429 406.875 138.862 403.728 132.567 397.433 C 126.272 391.138 123.125 383.571 123.125 374.732 L 123.125 139.018 C 123.125 130.179 126.272 122.612 132.567 116.317 C 138.862 110.022 146.429 106.875 155.268 106.875 L 257.054 106.875 C 261.607 106.875 265.424 108.406 268.504 111.468 C 271.585 114.531 273.125 118.325 273.125 122.852 C 273.125 127.379 271.585 131.205 268.504 134.33 C 265.424 137.455 261.607 139.018 257.054 139.018 L 155.268 139.018 L 155.268 374.732 L 257.054 374.732 C 261.607 374.732 265.424 376.263 268.504 379.325 C 271.585 382.388 273.125 386.183 273.125 390.709 C 273.125 395.237 271.585 399.062 268.504 402.187 C 265.424 405.312 261.607 406.875 257.054 406.875 L 155.268 406.875 Z M 361.518 272.946 L 246.323 272.946 C 241.774 272.946 237.961 271.416 234.883 268.353 C 231.806 265.291 230.268 261.496 230.268 256.969 C 230.268 252.442 231.806 248.616 234.883 245.491 C 237.961 242.366 241.774 240.804 246.323 240.804 L 361.518 240.804 L 336.518 215.804 C 333.244 212.53 331.607 208.725 331.607 204.388 C 331.607 200.051 333.244 196.257 336.518 193.004 C 339.792 189.751 343.586 188.125 347.902 188.125 C 352.217 188.125 356.012 189.762 359.286 193.036 L 411.964 245.714 C 415.238 248.88 416.875 252.573 416.875 256.794 C 416.875 261.015 415.238 264.762 411.964 268.036 L 359.286 320.714 C 356.012 323.988 352.292 325.551 348.125 325.402 C 343.958 325.253 340.167 323.542 336.751 320.268 C 333.619 316.994 332.054 313.2 332.054 308.884 C 332.054 304.569 333.691 300.774 336.964 297.5 L 361.518 272.946 Z" style="fill: rgb(255, 255, 255); transform-origin: 270px 256.875px;" transform="matrix(0, -1, 1, 0, -0.000005722046, 0)"/>
</svg>