<?xml version="1.0" encoding="utf-8"?>
<svg viewBox="0 0 525 525" xmlns="http://www.w3.org/2000/svg">
  <g transform="matrix(1, 0, 0, 1, -1.1368683772161603e-13, 0)">
    <title>Layer 1</title>
    <path id="svg_1" d="m203,0l120,0c111,0 202,90 202,203l0,120c0,111 -90,202 -203,202l-120,0c-110,0 -202,-90 -202,-203l0,-120c0,-110 90,-202 203,-202z" fill="#7882ff"/>
  </g>
  <path d="M 231.875 241.25 L 241.25 241.25 C 246.563 241.25 251.016 239.453 254.609 235.859 C 258.203 232.266 260 227.813 260 222.5 L 260 213.125 C 260 207.813 258.203 203.359 254.609 199.766 C 251.016 196.172 246.563 194.375 241.25 194.375 L 222.5 194.375 C 220 194.375 217.813 195.313 215.938 197.188 C 214.063 199.063 213.125 201.25 213.125 203.75 L 213.125 260 C 213.125 262.5 214.063 264.688 215.938 266.563 C 217.813 268.438 220 269.375 222.5 269.375 C 225 269.375 227.188 268.438 229.063 266.563 C 230.938 264.688 231.875 262.5 231.875 260 L 231.875 241.25 Z M 231.875 222.5 L 231.875 213.125 L 241.25 213.125 L 241.25 222.5 L 231.875 222.5 Z M 297.5 269.375 C 302.813 269.375 307.266 267.578 310.859 263.984 C 314.453 260.391 316.25 255.938 316.25 250.625 L 316.25 213.125 C 316.25 207.813 314.453 203.359 310.859 199.766 C 307.266 196.172 302.813 194.375 297.5 194.375 L 278.75 194.375 C 276.25 194.375 274.063 195.313 272.188 197.188 C 270.313 199.063 269.375 201.25 269.375 203.75 L 269.375 260 C 269.375 262.5 270.313 264.688 272.188 266.563 C 274.063 268.438 276.25 269.375 278.75 269.375 L 297.5 269.375 Z M 288.125 250.625 L 288.125 213.125 L 297.5 213.125 L 297.5 250.625 L 288.125 250.625 Z M 344.375 241.25 L 353.862 241.25 C 356.391 241.25 358.568 240.313 360.391 238.438 C 362.213 236.563 363.125 234.375 363.125 231.875 C 363.125 229.375 362.188 227.188 360.313 225.313 C 358.438 223.438 356.25 222.5 353.75 222.5 L 344.375 222.5 L 344.375 213.125 L 353.862 213.125 C 356.391 213.125 358.568 212.188 360.391 210.313 C 362.213 208.438 363.125 206.25 363.125 203.75 C 363.125 201.25 362.183 199.063 360.299 197.188 C 358.414 195.313 356.216 194.375 353.704 194.375 L 334.862 194.375 C 332.35 194.375 330.182 195.313 328.359 197.188 C 326.536 199.063 325.625 201.25 325.625 203.75 L 325.625 260 C 325.625 262.5 326.563 264.688 328.438 266.563 C 330.313 268.438 332.5 269.375 335 269.375 C 337.5 269.375 339.688 268.438 341.563 266.563 C 343.438 264.688 344.375 262.5 344.375 260 L 344.375 241.25 Z M 194.375 353.75 C 186.641 353.75 180.02 350.996 174.512 345.488 C 169.004 339.98 166.25 333.359 166.25 325.625 L 166.25 138.125 C 166.25 130.391 169.004 123.77 174.512 118.262 C 180.02 112.754 186.641 110 194.375 110 L 381.875 110 C 389.609 110 396.23 112.754 401.738 118.262 C 407.246 123.77 410 130.391 410 138.125 L 410 325.625 C 410 333.359 407.246 339.98 401.738 345.488 C 396.23 350.996 389.609 353.75 381.875 353.75 L 194.375 353.75 Z M 194.375 325.625 L 381.875 325.625 L 381.875 138.125 L 194.375 138.125 L 194.375 325.625 Z M 138.125 410 C 130.391 410 123.77 407.246 118.262 401.738 C 112.754 396.23 110 389.609 110 381.875 L 110 180.312 C 110 176.328 111.339 172.988 114.019 170.293 C 116.699 167.598 120.019 166.25 123.98 166.25 C 127.941 166.25 131.289 167.598 134.023 170.293 C 136.758 172.988 138.125 176.328 138.125 180.312 L 138.125 381.875 L 339.688 381.875 C 343.672 381.875 347.012 383.214 349.707 385.894 C 352.402 388.574 353.75 391.894 353.75 395.855 C 353.75 399.816 352.402 403.164 349.707 405.898 C 347.012 408.633 343.672 410 339.688 410 L 138.125 410 Z M 194.375 138.125 L 194.375 325.625 L 194.375 138.125 Z" style="fill: rgb(255, 255, 255);" transform="matrix(1, 0, 0, 1, -1.1368683772161603e-13, 0)"/>
</svg>