<?xml version="1.0" encoding="utf-8"?>
<svg viewBox="0 0 525 525" xmlns="http://www.w3.org/2000/svg">
  <g transform="matrix(1, 0, 0, 1, -1.1368683772161603e-13, 0)">
    <title>Layer 1</title>
    <path id="svg_1" d="m203,0l120,0c111,0 202,90 202,203l0,120c0,111 -90,202 -203,202l-120,0c-110,0 -202,-90 -202,-203l0,-120c0,-110 90,-202 203,-202z" fill="#7882ff"/>
  </g>
  <path d="M 185.571 411 C 176.732 411 169.165 407.853 162.871 401.558 C 156.576 395.263 153.429 387.696 153.429 378.857 L 153.429 164.571 L 148.071 164.571 C 143.518 164.571 139.701 163.04 136.621 159.978 C 133.54 156.916 132 153.121 132 148.594 C 132 144.067 133.54 140.241 136.621 137.116 C 139.701 133.991 143.518 132.429 148.071 132.429 L 217.714 132.429 L 217.714 127.071 C 217.714 122.518 219.254 118.701 222.335 115.621 C 225.415 112.54 229.232 111 233.786 111 L 287.357 111 C 291.911 111 295.728 112.54 298.808 115.621 C 301.888 118.701 303.429 122.518 303.429 127.071 L 303.429 132.429 L 373.071 132.429 C 377.625 132.429 381.442 133.959 384.522 137.022 C 387.603 140.084 389.143 143.879 389.143 148.406 C 389.143 152.933 387.603 156.759 384.522 159.884 C 381.442 163.009 377.625 164.571 373.071 164.571 L 367.714 164.571 L 367.714 378.663 C 367.714 387.721 364.567 395.375 358.272 401.625 C 351.978 407.875 344.411 411 335.571 411 L 185.571 411 Z M 335.571 164.571 L 185.571 164.571 L 185.571 378.857 L 335.571 378.857 L 335.571 164.571 Z M 233.692 346.714 C 238.219 346.714 242.045 345.174 245.17 342.094 C 248.295 339.013 249.857 335.196 249.857 330.643 L 249.857 212.786 C 249.857 208.232 248.326 204.415 245.264 201.335 C 242.201 198.254 238.407 196.714 233.88 196.714 C 229.353 196.714 225.527 198.254 222.402 201.335 C 219.277 204.415 217.714 208.232 217.714 212.786 L 217.714 330.643 C 217.714 335.196 219.246 339.013 222.308 342.094 C 225.37 345.174 229.165 346.714 233.692 346.714 Z M 287.263 346.714 C 291.79 346.714 295.616 345.174 298.741 342.094 C 301.866 339.013 303.429 335.196 303.429 330.643 L 303.429 212.786 C 303.429 208.232 301.898 204.415 298.835 201.335 C 295.773 198.254 291.978 196.714 287.451 196.714 C 282.925 196.714 279.098 198.254 275.973 201.335 C 272.848 204.415 271.286 208.232 271.286 212.786 L 271.286 330.643 C 271.286 335.196 272.817 339.013 275.879 342.094 C 278.942 345.174 282.736 346.714 287.263 346.714 Z M 185.571 164.571 L 185.571 378.857 L 185.571 164.571 Z" style="fill: rgb(255, 255, 255);" transform="matrix(1, 0, 0, 1, -1.1368683772161603e-13, 0)"/>
</svg>