<?xml version="1.0" encoding="utf-8"?>
<svg viewBox="0 0 525 525" xmlns="http://www.w3.org/2000/svg">
  <g>
    <title>Layer 1</title>
    <path id="path-1" d="M 203 0 L 323 0 C 434 0 525 90 525 203 L 525 323 C 525 434 435 525 322 525 L 202 525 C 92 525 0 435 0 322 L 0 202 C 0 92 90 0 203 0 Z" style="fill: rgb(25, 177, 212);">
      <title>red</title>
    </path>
  </g>
  <path d="M 289.475 246.479 L 306.979 263.983 L 306.979 217.815 L 330.479 217.815 L 330.479 263.983 L 347.983 246.479 L 364.432 263.319 L 318.729 309.022 L 273.026 263.319 Z M 318.729 307.608 L 363.026 263.311 L 347.975 247.901 L 329.479 266.397 L 329.479 218.815 L 307.979 218.815 L 307.979 266.397 L 289.483 247.901 L 274.432 263.311 Z M 138.729 383.815 C 130.383 383.796 123.143 380.786 117.188 374.856 C 111.258 368.901 108.248 361.661 108.229 353.315 L 108.229 173.315 C 108.248 164.969 111.245 157.717 117.188 151.773 C 123.13 145.832 130.383 142.834 138.729 142.815 L 378.729 142.815 C 387.075 142.834 394.314 145.845 400.271 151.774 C 406.199 157.73 409.21 164.969 409.229 173.315 L 409.229 353.315 C 409.21 361.661 406.212 368.914 400.271 374.856 C 394.327 380.799 387.075 383.796 378.729 383.815 Z M 378.729 382.815 C 386.883 382.834 393.755 379.957 399.563 374.148 C 405.37 368.342 408.248 361.469 408.229 353.315 L 408.229 173.315 C 408.248 165.161 405.383 158.276 399.563 152.48 C 393.768 146.661 386.883 143.796 378.729 143.815 L 138.729 143.815 C 130.575 143.796 123.702 146.674 117.896 152.481 C 112.087 158.289 109.21 165.161 109.229 173.315 L 109.229 353.315 C 109.21 361.469 112.074 368.355 117.895 374.148 C 123.689 379.97 130.575 382.834 138.729 382.815 Z M 379.229 172.815 L 379.229 353.815 L 138.229 353.815 L 138.229 172.815 Z M 139.229 352.815 L 378.229 352.815 L 378.229 173.815 L 139.229 173.815 Z M 160.729 233.315 C 160.747 228.971 162.243 225.219 165.188 222.273 C 168.132 219.33 171.885 217.833 176.229 217.815 L 243.729 217.815 C 248.073 217.833 251.812 219.345 254.771 222.274 C 257.7 225.233 259.211 228.971 259.229 233.315 L 259.229 308.815 L 235.729 308.815 L 235.729 241.315 L 221.729 241.315 L 221.729 286.315 L 198.229 286.315 L 198.229 241.315 L 184.229 241.315 L 184.229 308.815 L 160.729 308.815 Z M 161.729 307.815 L 183.229 307.815 L 183.229 240.315 L 199.229 240.315 L 199.229 285.315 L 220.729 285.315 L 220.729 240.315 L 236.729 240.315 L 236.729 307.815 L 258.229 307.815 L 258.229 233.315 C 258.247 229.159 256.882 225.773 254.063 222.98 C 251.27 220.161 247.885 218.797 243.729 218.815 L 176.229 218.815 C 172.073 218.797 168.7 220.176 165.896 222.981 C 163.089 225.787 161.711 229.159 161.729 233.315 Z" style="fill: none;"/>
  <path d="M 289.475 246.479 L 306.979 263.983 L 306.979 217.815 L 330.479 217.815 L 330.479 263.983 L 347.983 246.479 L 364.432 263.319 L 318.729 309.022 L 273.026 263.319 Z M 318.729 307.608 L 363.026 263.311 L 347.975 247.901 L 329.479 266.397 L 329.479 218.815 L 307.979 218.815 L 307.979 266.397 L 289.483 247.901 L 274.432 263.311 Z M 138.729 383.815 C 130.383 383.796 123.143 380.786 117.188 374.856 C 111.258 368.901 108.248 361.661 108.229 353.315 L 108.229 173.315 C 108.248 164.969 111.245 157.717 117.188 151.773 C 123.13 145.832 130.383 142.834 138.729 142.815 L 378.729 142.815 C 387.075 142.834 394.314 145.845 400.271 151.774 C 406.199 157.73 409.21 164.969 409.229 173.315 L 409.229 353.315 C 409.21 361.661 406.212 368.914 400.271 374.856 C 394.327 380.799 387.075 383.796 378.729 383.815 Z M 378.729 382.815 C 386.883 382.834 393.755 379.957 399.563 374.148 C 405.37 368.342 408.248 361.469 408.229 353.315 L 408.229 173.315 C 408.248 165.161 405.383 158.276 399.563 152.48 C 393.768 146.661 386.883 143.796 378.729 143.815 L 138.729 143.815 C 130.575 143.796 123.702 146.674 117.896 152.481 C 112.087 158.289 109.21 165.161 109.229 173.315 L 109.229 353.315 C 109.21 361.469 112.074 368.355 117.895 374.148 C 123.689 379.97 130.575 382.834 138.729 382.815 Z M 379.229 172.815 L 379.229 353.815 L 138.229 353.815 L 138.229 172.815 Z M 139.229 352.815 L 378.229 352.815 L 378.229 173.815 L 139.229 173.815 Z M 160.729 233.315 C 160.747 228.971 162.243 225.219 165.188 222.273 C 168.132 219.33 171.885 217.833 176.229 217.815 L 243.729 217.815 C 248.073 217.833 251.812 219.345 254.771 222.274 C 257.7 225.233 259.211 228.971 259.229 233.315 L 259.229 308.815 L 235.729 308.815 L 235.729 241.315 L 221.729 241.315 L 221.729 286.315 L 198.229 286.315 L 198.229 241.315 L 184.229 241.315 L 184.229 308.815 L 160.729 308.815 Z M 161.729 307.815 L 183.229 307.815 L 183.229 240.315 L 199.229 240.315 L 199.229 285.315 L 220.729 285.315 L 220.729 240.315 L 236.729 240.315 L 236.729 307.815 L 258.229 307.815 L 258.229 233.315 C 258.247 229.159 256.882 225.773 254.063 222.98 C 251.27 220.161 247.885 218.797 243.729 218.815 L 176.229 218.815 C 172.073 218.797 168.7 220.176 165.896 222.981 C 163.089 225.787 161.711 229.159 161.729 233.315 Z" style="fill: none;"/>
  <path d="M 70 310 L 70 210 L 95.335 210 L 95.335 243.333 L 128.667 243.333 L 128.667 210 L 154 210 L 154 310 L 128.667 310 L 128.667 268.666 L 95.335 268.666 L 95.335 310 L 70 310 Z M 199.334 310 L 199.334 235.333 L 170.001 235.333 L 170.001 210 L 254 210 L 254 235.333 L 224.666 235.333 L 224.666 310 L 199.334 310 Z M 270.001 310 L 270.001 226 C 270.001 222 271.334 218 275.334 215.334 C 278.001 211.334 282 210 287.334 210 L 362 210 C 366 210 370 211.334 374 215.334 C 376.667 218 378 222 378 226 L 378 310 L 354.001 310 L 354.001 235.333 L 336.666 235.333 L 336.666 292.666 L 311.334 292.666 L 311.334 235.333 L 295.334 235.333 L 295.334 310 L 270.001 310 Z M 403.334 310 L 403.334 210 L 428.666 210 L 428.666 284.666 L 470 284.666 L 470 310 L 403.334 310 Z" style="fill: rgb(255, 255, 255);"/>
</svg>