<?xml version="1.0" encoding="utf-8"?>
<svg viewBox="0 0 525 525" xmlns="http://www.w3.org/2000/svg">
  <g transform="matrix(1, 0, 0, 1, -1.1368683772161603e-13, 0)">
    <title>Layer 1</title>
    <path id="svg_1" d="m203,0l120,0c111,0 202,90 202,203l0,120c0,111 -90,202 -203,202l-120,0c-110,0 -202,-90 -202,-203l0,-120c0,-110 90,-202 203,-202z" style="fill: rgb(245, 84, 84);"/>
  </g>
  <g transform="matrix(1, 0, 0, 1, -1.1368683772161603e-13, 0)"/>
  <path d="M 191.57 372.206 L 148.681 415.095 C 145.262 418.513 141.378 420.145 137.026 419.99 C 132.675 419.834 128.791 418.047 125.372 414.629 C 121.953 411.21 120.244 407.247 120.244 402.741 C 120.244 398.234 121.953 394.272 125.372 390.853 L 167.794 348.431 L 152.41 348.431 C 147.655 348.431 143.669 346.832 140.453 343.634 C 137.236 340.436 135.628 336.473 135.628 331.746 C 135.628 327.019 137.236 323.023 140.453 319.76 C 143.669 316.497 147.655 314.865 152.41 314.865 L 208.352 314.865 C 213.108 314.865 217.093 316.474 220.31 319.69 C 223.527 322.907 225.135 326.893 225.135 331.648 L 225.135 387.59 C 225.135 392.345 223.537 396.331 220.339 399.548 C 217.14 402.764 213.178 404.373 208.451 404.373 C 203.724 404.373 199.728 402.764 196.465 399.548 C 193.201 396.331 191.57 392.345 191.57 387.59 L 191.57 372.206 Z M 348.208 372.206 L 348.208 387.59 C 348.208 392.345 346.609 396.331 343.411 399.548 C 340.213 402.764 336.251 404.373 331.524 404.373 C 326.796 404.373 322.801 402.764 319.537 399.548 C 316.274 396.331 314.643 392.345 314.643 387.59 L 314.643 331.648 C 314.643 326.893 316.251 322.907 319.468 319.69 C 322.684 316.474 326.67 314.865 331.425 314.865 L 387.367 314.865 C 392.122 314.865 396.108 316.464 399.325 319.662 C 402.542 322.86 404.15 326.822 404.15 331.55 C 404.15 336.277 402.542 340.272 399.325 343.536 C 396.108 346.799 392.122 348.431 387.367 348.431 L 371.983 348.431 L 414.872 391.32 C 418.291 394.738 420 398.623 420 402.974 C 420 407.325 418.291 411.21 414.872 414.629 C 411.454 418.047 407.491 419.757 402.985 419.757 C 398.478 419.757 394.516 418.047 391.097 414.629 L 348.208 372.206 Z M 167.794 191.792 L 124.905 148.903 C 121.487 145.484 119.855 141.522 120.01 137.016 C 120.166 132.509 121.953 128.547 125.372 125.128 C 128.791 121.709 132.753 120 137.259 120 C 141.766 120 145.728 121.709 149.147 125.128 L 191.57 168.017 L 191.57 152.633 C 191.57 147.878 193.169 143.892 196.366 140.675 C 199.564 137.459 203.527 135.85 208.254 135.85 C 212.982 135.85 216.977 137.459 220.24 140.675 C 223.503 143.892 225.135 147.878 225.135 152.633 L 225.135 208.575 C 225.135 213.33 223.527 217.316 220.31 220.533 C 217.093 223.749 213.108 225.358 208.352 225.358 L 152.41 225.358 C 147.655 225.358 143.669 223.759 140.453 220.561 C 137.236 217.363 135.628 213.401 135.628 208.673 C 135.628 203.946 137.236 199.951 140.453 196.687 C 143.669 193.424 147.655 191.792 152.41 191.792 L 167.794 191.792 Z M 371.983 191.792 L 387.367 191.792 C 392.122 191.792 396.108 193.391 399.325 196.589 C 402.542 199.787 404.15 203.75 404.15 208.477 C 404.15 213.204 402.542 217.2 399.325 220.463 C 396.108 223.726 392.122 225.358 387.367 225.358 L 331.425 225.358 C 326.67 225.358 322.684 223.749 319.468 220.533 C 316.251 217.316 314.643 213.33 314.643 208.575 L 314.643 152.633 C 314.643 147.878 316.242 143.892 319.439 140.675 C 322.637 137.459 326.6 135.85 331.327 135.85 C 336.054 135.85 340.05 137.459 343.313 140.675 C 346.576 143.892 348.208 147.878 348.208 152.633 L 348.208 168.017 L 391.097 125.128 C 394.516 121.709 398.478 120 402.985 120 C 407.491 120 411.454 121.709 414.872 125.128 C 418.291 128.547 420 132.509 420 137.016 C 420 141.522 418.291 145.484 414.872 148.903 L 371.983 191.792 Z" style="fill: rgb(255, 255, 255);" transform="matrix(1, 0, 0, 1, -1.1368683772161603e-13, 0)"/>
</svg>