<?xml version="1.0" encoding="utf-8"?>
<svg viewBox="0 0 525 525" xmlns="http://www.w3.org/2000/svg">
  <g>
    <title>Layer 1</title>
    <path id="path-1" d="M 203 0 L 323 0 C 434 0 525 90 525 203 L 525 323 C 525 434 435 525 322 525 L 202 525 C 92 525 0 435 0 322 L 0 202 C 0 92 90 0 203 0 Z" style="fill: rgb(25, 177, 212);">
      <title>red</title>
    </path>
  </g>
  <path d="M 180 415 C 171.75 415 164.688 412.062 158.813 406.188 C 152.938 400.312 150 393.25 150 385 L 150 145 C 150 136.75 152.938 129.687 158.813 123.813 C 164.688 117.937 171.75 115 180 115 L 287.625 115 C 291.625 115 295.438 115.75 299.063 117.25 C 302.688 118.75 305.875 120.875 308.625 123.625 L 381.375 196.375 C 384.125 199.125 386.25 202.312 387.75 205.938 C 389.25 209.562 390 213.375 390 217.375 L 390 385 C 390 393.25 387.063 400.312 381.188 406.188 C 375.313 412.062 368.25 415 360 415 L 180 415 Z M 285 205 L 285 145 L 180 145 L 180 385 L 360 385 L 360 220 L 300 220 C 295.75 220 292.188 218.562 289.313 215.688 C 286.438 212.812 285 209.25 285 205 Z M 180 145 L 180 220 L 180 145 L 180 385 L 180 145 Z" style="fill: rgb(255, 255, 255);"/>
</svg>