<?xml version="1.0" encoding="utf-8"?>
<svg viewBox="0 0 525 525" xmlns="http://www.w3.org/2000/svg">
  <g>
    <title>Layer 1</title>
    <path id="path-1" d="M 203 0 L 323 0 C 434 0 525 90 525 203 L 525 323 C 525 434 435 525 322 525 L 202 525 C 92 525 0 435 0 322 L 0 202 C 0 92 90 0 203 0 Z" style="fill: rgb(212, 172, 25);">
      <title>red</title>
    </path>
  </g>
  <path d="M 147.143 415 C 138.304 415 130.737 411.853 124.442 405.558 C 118.147 399.263 115 391.696 115 382.857 L 115 147.143 C 115 138.304 118.147 130.737 124.442 124.442 C 130.737 118.147 138.304 115 147.143 115 L 270.5 115 C 274.869 115 278.616 116.531 281.741 119.593 C 284.866 122.656 286.429 126.45 286.429 130.977 C 286.429 135.504 284.888 139.33 281.808 142.455 C 278.728 145.58 274.911 147.143 270.357 147.143 L 147.143 147.143 L 147.143 382.857 L 382.857 382.857 L 382.857 259.5 C 382.857 255.131 384.388 251.384 387.45 248.259 C 390.513 245.134 394.308 243.571 398.834 243.571 C 403.362 243.571 407.187 245.112 410.312 248.192 C 413.437 251.272 415 255.089 415 259.643 L 415 382.857 C 415 391.696 411.853 399.263 405.558 405.558 C 399.263 411.853 391.696 415 382.857 415 L 147.143 415 Z M 350.818 179.286 L 334.695 179.286 C 330.127 179.286 326.297 177.746 323.207 174.665 C 320.117 171.585 318.571 167.768 318.571 163.214 C 318.571 158.661 320.117 154.844 323.207 151.763 C 326.297 148.683 330.127 147.143 334.695 147.143 L 350.818 147.143 L 350.818 131.071 C 350.818 126.518 352.363 122.701 355.454 119.621 C 358.544 116.54 362.353 115 366.88 115 C 371.407 115 375.201 116.54 378.264 119.621 C 381.326 122.701 382.857 126.518 382.857 131.071 L 382.857 147.143 L 398.834 147.143 C 403.362 147.143 407.187 148.674 410.312 151.736 C 413.437 154.799 415 158.593 415 163.12 C 415 167.647 413.46 171.456 410.379 174.546 C 407.299 177.637 403.482 179.182 398.929 179.182 L 382.857 179.182 L 382.857 195.305 C 382.857 199.873 381.317 203.703 378.237 206.793 C 375.156 209.883 371.339 211.429 366.786 211.429 C 362.321 211.429 358.544 209.888 355.454 206.808 C 352.363 203.728 350.818 199.911 350.818 195.357 L 350.818 179.286 Z M 248.929 329.286 L 223.036 294.911 C 221.473 292.53 219.39 291.339 216.786 291.339 C 214.182 291.339 212.098 292.53 210.536 294.911 L 178.474 337.779 C 176.337 340.45 176.049 343.274 177.612 346.25 C 179.174 349.226 181.518 350.714 184.643 350.714 L 345.444 350.714 C 348.66 350.714 351.012 349.226 352.5 346.25 C 353.988 343.274 353.691 340.446 351.607 337.768 L 303.393 273.482 C 301.83 271.101 299.747 269.911 297.143 269.911 C 294.539 269.911 292.455 271.101 290.893 273.482 L 248.929 329.286 Z M 265 265 Z" style="fill: rgb(255, 255, 255);"/>
</svg>