<?xml version="1.0" encoding="utf-8"?>
<svg viewBox="0 0 525 525" xmlns="http://www.w3.org/2000/svg">
  <g>
    <title>Layer 1</title>
    <path id="path-1" d="M 203 0 L 323 0 C 434 0 525 90 525 203 L 525 323 C 525 434 435 525 322 525 L 202 525 C 92 525 0 435 0 322 L 0 202 C 0 92 90 0 203 0 Z" style="fill: rgb(245, 84, 84);">
      <title>red</title>
    </path>
  </g>
  <path d="M 383.156 193.771 C 390.977 199.916 394.888 207.877 394.888 217.654 C 394.888 227.43 390.977 235.391 383.156 241.536 L 346.285 270.447 C 343.212 272.681 339.79 273.659 336.02 273.38 C 332.249 273.1 328.966 271.564 326.173 268.771 C 323.1 265.698 321.704 261.928 321.983 257.458 C 322.262 252.989 324.218 249.358 327.849 246.564 L 364.302 217.654 L 272.542 145.168 L 244.05 167.793 C 240.977 170.028 237.556 171.075 233.785 170.936 C 230.014 170.796 226.732 169.33 223.939 166.536 C 220.866 163.464 219.399 159.693 219.539 155.223 C 219.679 150.754 221.564 147.123 225.196 144.33 L 253.687 121.704 C 259.274 117.235 265.559 115 272.542 115 C 279.525 115 285.81 117.235 291.397 121.704 L 383.156 193.771 Z M 382.737 410.391 L 332.877 360.95 L 291.397 394.05 C 285.81 398.52 279.525 400.754 272.542 400.754 C 265.559 400.754 259.274 398.52 253.687 394.05 L 146.844 309.832 C 142.933 306.76 140.978 302.849 140.978 298.101 C 140.978 293.352 142.933 289.441 146.844 286.369 C 149.637 284.134 152.709 283.017 156.061 283.017 C 159.413 283.017 162.486 284.134 165.279 286.369 L 272.542 370.168 L 311.508 339.581 L 283.017 310.251 L 294.749 310.251 L 291.397 313.184 C 285.81 317.654 279.525 319.888 272.542 319.888 C 265.559 319.888 259.274 317.654 253.687 313.184 L 161.927 241.117 C 154.106 234.972 150.265 227.081 150.405 217.444 C 150.545 207.807 154.385 199.916 161.927 193.771 L 164.022 192.095 L 119.609 147.263 C 116.536 144.19 115 140.698 115 136.788 C 115 132.877 116.536 129.385 119.609 126.313 C 122.681 123.24 126.243 121.704 130.293 121.704 C 134.343 121.704 137.905 123.24 140.978 126.313 L 404.106 389.441 C 407.179 392.514 408.715 396.006 408.715 399.916 C 408.715 403.827 407.179 407.319 404.106 410.391 C 401.033 413.464 397.472 415 393.422 415 C 389.371 415 385.81 413.464 382.737 410.391 Z M 274.218 216.397 Z M 398.24 286.369 C 402.151 289.441 404.106 293.352 404.106 298.101 C 404.106 302.849 402.151 306.76 398.24 309.832 L 391.536 315.279 C 388.463 317.793 385.042 318.911 381.271 318.631 C 377.5 318.352 374.218 316.816 371.425 314.022 C 368.352 310.95 366.955 307.179 367.235 302.709 C 367.514 298.24 369.469 294.469 373.101 291.397 L 379.804 285.95 C 382.597 283.715 385.67 282.668 389.022 282.807 C 392.374 282.947 395.447 284.134 398.24 286.369 Z" style="fill: rgb(255, 255, 255);"/>
</svg>