<?xml version="1.0" encoding="utf-8"?>
<svg viewBox="0 0 525 525" xmlns="http://www.w3.org/2000/svg">
  <g>
    <title>Layer 1</title>
    <path id="path-1" d="M 203 0 L 323 0 C 434 0 525 90 525 203 L 525 323 C 525 434 435 525 322 525 L 202 525 C 92 525 0 435 0 322 L 0 202 C 0 92 90 0 203 0 Z" style="fill: rgb(71, 181, 189);">
      <title>red</title>
    </path>
  </g>
  <path d="M 214.167 390 C 208.38 390 203.461 387.975 199.41 383.923 C 195.359 379.872 193.333 374.954 193.333 369.167 L 193.333 181.667 L 130.833 181.667 C 125.047 181.667 120.127 179.642 116.077 175.59 C 112.026 171.539 110 166.621 110 160.833 C 110 155.047 112.026 150.127 116.077 146.077 C 120.127 142.026 125.047 140 130.833 140 L 297.5 140 C 303.287 140 308.206 142.026 312.257 146.077 C 316.308 150.127 318.333 155.047 318.333 160.833 C 318.333 166.621 316.308 171.539 312.257 175.59 C 308.206 179.642 303.287 181.667 297.5 181.667 L 235 181.667 L 235 369.167 C 235 374.954 232.975 379.872 228.923 383.923 C 224.872 387.975 219.954 390 214.167 390 Z M 370.417 390 C 364.63 390 359.711 387.975 355.66 383.923 C 351.609 379.872 349.583 374.954 349.583 369.167 L 349.583 265 L 318.333 265 C 312.547 265 307.627 262.975 303.577 258.923 C 299.526 254.872 297.5 249.954 297.5 244.167 C 297.5 238.38 299.526 233.461 303.577 229.41 C 307.627 225.359 312.547 223.333 318.333 223.333 L 422.5 223.333 C 428.287 223.333 433.206 225.359 437.257 229.41 C 441.308 233.461 443.333 238.38 443.333 244.167 C 443.333 249.954 441.308 254.872 437.257 258.923 C 433.206 262.975 428.287 265 422.5 265 L 391.25 265 L 391.25 369.167 C 391.25 374.954 389.225 379.872 385.173 383.923 C 381.122 387.975 376.204 390 370.417 390 Z" style="fill: rgb(255, 255, 255);"/>
</svg>