<?xml version="1.0" encoding="utf-8"?>
<svg viewBox="0 0 525 525" xmlns="http://www.w3.org/2000/svg">
  <g>
    <title>Layer 1</title>
    <path id="path-1" d="M 203 0 L 323 0 C 434 0 525 90 525 203 L 525 323 C 525 434 435 525 322 525 L 202 525 C 92 525 0 435 0 322 L 0 202 C 0 92 90 0 203 0 Z" style="fill: rgb(212, 172, 25);">
      <title>red</title>
    </path>
  </g>
  <path d="M 147.143 415 C 138.304 415 130.737 411.8 124.442 405.402 C 118.147 399.003 115 391.488 115 382.857 L 115 147.143 C 115 138.512 118.147 130.997 124.442 124.598 C 130.737 118.2 138.304 115 147.143 115 L 382.857 115 C 391.696 115 399.263 118.2 405.558 124.598 C 411.853 130.997 415 138.512 415 147.143 L 415 382.857 C 415 391.488 411.853 399.003 405.558 405.402 C 399.263 411.8 391.696 415 382.857 415 L 147.143 415 Z M 147.143 382.857 L 382.857 382.857 L 382.857 147.143 L 147.143 147.143 L 147.143 382.857 Z M 147.143 382.857 L 147.143 147.143 L 147.143 382.857 Z M 184.643 350.714 L 345.444 350.714 C 348.66 350.714 351.012 349.226 352.5 346.25 C 353.988 343.274 353.691 340.446 351.607 337.768 L 303.393 273.482 C 301.83 271.101 299.747 269.911 297.143 269.911 C 294.539 269.911 292.455 271.101 290.893 273.482 L 248.929 329.286 L 223.036 294.911 C 221.473 292.53 219.39 291.339 216.786 291.339 C 214.182 291.339 212.098 292.53 210.536 294.911 L 178.474 337.779 C 176.337 340.45 176.049 343.274 177.612 346.25 C 179.174 349.226 181.518 350.714 184.643 350.714 Z M 200.714 222.143 C 206.667 222.143 211.726 220.059 215.893 215.893 C 220.06 211.726 222.143 206.667 222.143 200.714 C 222.143 194.762 220.06 189.702 215.893 185.536 C 211.726 181.369 206.667 179.286 200.714 179.286 C 194.762 179.286 189.703 181.369 185.536 185.536 C 181.369 189.702 179.286 194.762 179.286 200.714 C 179.286 206.667 181.369 211.726 185.536 215.893 C 189.703 220.059 194.762 222.143 200.714 222.143 Z" style="fill: rgb(255, 255, 255);"/>
</svg>