<?xml version="1.0" encoding="utf-8"?>
<svg viewBox="0 0 525 525" xmlns="http://www.w3.org/2000/svg">
  <g>
    <title>Layer 1</title>
    <path id="path-1" d="M 203 0 L 323 0 C 434 0 525 90 525 203 L 525 323 C 525 434 435 525 322 525 L 202 525 C 92 525 0 435 0 322 L 0 202 C 0 92 90 0 203 0 Z" style="fill: rgb(212, 172, 25);">
      <title>red</title>
    </path>
  </g>
  <path d="M 278.75 283.75 L 258.438 256.797 C 257.07 254.714 255.247 253.672 252.969 253.672 C 250.69 253.672 248.867 254.714 247.5 256.797 L 221.719 291.172 C 219.896 293.516 219.611 295.99 220.864 298.594 C 222.117 301.198 224.225 302.5 227.188 302.5 L 349.063 302.5 C 352.025 302.5 354.132 301.198 355.386 298.594 C 356.639 295.99 356.354 293.516 354.531 291.172 L 319.375 244.297 C 318.008 242.214 316.185 241.172 313.906 241.172 C 311.627 241.172 309.805 242.214 308.438 244.297 L 278.75 283.75 Z M 194.375 358.75 C 186.641 358.75 180.02 355.996 174.512 350.488 C 169.004 344.98 166.25 338.359 166.25 330.625 L 166.25 143.125 C 166.25 135.391 169.004 128.77 174.512 123.262 C 180.02 117.754 186.641 115 194.375 115 L 381.875 115 C 389.609 115 396.23 117.754 401.738 123.262 C 407.246 128.77 410 135.391 410 143.125 L 410 330.625 C 410 338.359 407.246 344.98 401.738 350.488 C 396.23 355.996 389.609 358.75 381.875 358.75 L 194.375 358.75 Z M 194.375 330.625 L 381.875 330.625 L 381.875 143.125 L 194.375 143.125 L 194.375 330.625 Z M 138.125 415 C 130.391 415 123.77 412.246 118.262 406.738 C 112.754 401.23 110 394.609 110 386.875 L 110 185.312 C 110 181.328 111.339 177.988 114.019 175.293 C 116.699 172.598 120.019 171.25 123.98 171.25 C 127.941 171.25 131.289 172.598 134.023 175.293 C 136.758 177.988 138.125 181.328 138.125 185.312 L 138.125 386.875 L 339.688 386.875 C 343.672 386.875 347.012 388.215 349.707 390.894 C 352.402 393.574 353.75 396.894 353.75 400.855 C 353.75 404.816 352.402 408.164 349.707 410.898 C 347.012 413.633 343.672 415 339.688 415 L 138.125 415 Z M 194.375 143.125 L 194.375 330.625 L 194.375 143.125 Z" style="fill: rgb(234, 234, 234);"/>
</svg>