<?xml version="1.0" encoding="utf-8"?>
<svg viewBox="0 0 525 525" xmlns="http://www.w3.org/2000/svg">
  <g>
    <title>Layer 1</title>
    <path id="svg_1" d="m203,0l120,0c111,0 202,90 202,203l0,120c0,111 -90,202 -203,202l-120,0c-110,0 -202,-90 -202,-203l0,-120c0,-110 90,-202 203,-202z" style="fill: rgb(72, 189, 84);"/>
  </g>
  <path d="M 269.918 340 C 273.879 340 277.227 338.652 279.961 335.957 C 282.695 333.262 284.063 329.922 284.063 325.938 L 284.063 260.313 C 284.063 256.328 282.723 252.988 280.043 250.293 C 277.364 247.598 274.043 246.25 270.082 246.25 C 266.121 246.25 262.773 247.598 260.039 250.293 C 257.305 252.988 255.938 256.328 255.938 260.313 L 255.938 325.938 C 255.938 329.922 257.277 333.262 259.957 335.957 C 262.636 338.652 265.957 340 269.918 340 Z M 269.918 218.125 C 273.879 218.125 277.227 216.785 279.961 214.106 C 282.695 211.426 284.063 208.106 284.063 204.145 C 284.063 200.184 282.723 196.836 280.043 194.102 C 277.364 191.367 274.043 190 270.082 190 C 266.121 190 262.773 191.339 260.039 194.019 C 257.305 196.699 255.938 200.019 255.938 203.98 C 255.938 207.941 257.277 211.289 259.957 214.023 C 262.636 216.758 265.957 218.125 269.918 218.125 Z M 270.108 415 C 249.463 415 230.026 411.094 211.797 403.281 C 193.568 395.469 177.617 384.727 163.945 371.055 C 150.273 357.383 139.531 341.438 131.719 323.22 C 123.906 305.001 120 285.535 120 264.821 C 120 244.107 123.906 224.7 131.719 206.602 C 139.531 188.502 150.273 172.617 163.945 158.945 C 177.617 145.273 193.562 134.531 211.78 126.719 C 229.999 118.906 249.465 115 270.179 115 C 290.893 115 310.299 118.906 328.398 126.719 C 346.497 134.531 362.383 145.273 376.055 158.945 C 389.727 172.617 400.469 188.532 408.281 206.689 C 416.094 224.846 420 244.248 420 264.892 C 420 285.537 416.094 304.974 408.281 323.203 C 400.469 341.432 389.727 357.383 376.055 371.055 C 362.383 384.727 346.468 395.469 328.311 403.281 C 310.153 411.094 290.752 415 270.108 415 Z M 270 386.875 C 303.854 386.875 332.63 375.026 356.328 351.328 C 380.026 327.63 391.875 298.854 391.875 265 C 391.875 231.146 380.026 202.37 356.328 178.672 C 332.63 154.974 303.854 143.125 270 143.125 C 236.146 143.125 207.37 154.974 183.672 178.672 C 159.974 202.37 148.125 231.146 148.125 265 C 148.125 298.854 159.974 327.63 183.672 351.328 C 207.37 375.026 236.146 386.875 270 386.875 Z M 270 265 Z" style="fill: rgb(255, 255, 255);"/>
</svg>