<?xml version="1.0" encoding="utf-8"?>
<svg viewBox="0 0 525 525" xmlns="http://www.w3.org/2000/svg">
  <g>
    <title>Layer 1</title>
    <path id="path-1" d="M 203 0 L 323 0 C 434 0 525 90 525 203 L 525 323 C 525 434 435 525 322 525 L 202 525 C 92 525 0 435 0 322 L 0 202 C 0 92 90 0 203 0 Z" style="fill: rgb(71, 181, 189);">
      <title>red</title>
    </path>
  </g>
  <path d="M 109 352 C 102.334 352 96.667 349.667 92 345 C 87.334 340.334 85 334.667 85 328 L 85 280 C 85 273.067 87.267 267.334 91.8 262.8 C 96.334 258.267 102.067 256 109 256 C 115.934 256 121.667 258.267 126.2 262.8 C 130.734 267.334 133 273.067 133 280 L 133 304 L 181 304 L 181 184 C 181 177.067 183.267 171.334 187.8 166.8 C 192.334 162.267 198.067 160 205 160 C 211.934 160 217.667 162.267 222.2 166.8 C 226.734 171.334 229 177.067 229 184 L 229 328 C 229 334.667 226.667 340.334 222 345 C 217.334 349.667 211.667 352 205 352 L 109 352 Z M 325 352 C 318.2 352 312.5 349.7 307.9 345.1 C 303.3 340.5 301 334.8 301 328 L 301 304 C 301 300.8 302.2 298 304.6 295.6 C 307 293.2 309.8 292 313 292 L 337 292 C 340.2 292 343 293.2 345.4 295.6 C 347.8 298 349 300.8 349 304 L 397 304 L 397 268 L 325 268 C 318.2 268 312.5 265.7 307.9 261.1 C 303.3 256.5 301 250.8 301 244 L 301 184 C 301 177.2 303.3 171.5 307.9 166.9 C 312.5 162.3 318.2 160 325 160 L 421 160 C 427.8 160 433.5 162.3 438.1 166.9 C 442.7 171.5 445 177.2 445 184 L 445 208 C 445 211.2 443.8 214 441.4 216.4 C 439 218.8 436.2 220 433 220 L 409 220 C 405.8 220 403 218.8 400.6 216.4 C 398.2 214 397 211.2 397 208 L 349 208 L 349 244 L 421 244 C 427.8 244 433.5 246.3 438.1 250.9 C 442.7 255.5 445 261.2 445 268 L 445 328 C 445 334.8 442.7 340.5 438.1 345.1 C 433.5 349.7 427.8 352 421 352 L 325 352 Z" style="fill: rgb(255, 255, 255);"/>
</svg>