<?xml version="1.0" encoding="utf-8"?>
<svg viewBox="0 0 525 525" xmlns="http://www.w3.org/2000/svg">
  <g transform="matrix(1, 0, 0, 1, -1.1368683772161603e-13, 0)">
    <title>Layer 1</title>
    <path id="svg_1" d="m203,0l120,0c111,0 202,90 202,203l0,120c0,111 -90,202 -203,202l-120,0c-110,0 -202,-90 -202,-203l0,-120c0,-110 90,-202 203,-202z" fill="#7882ff"/>
  </g>
  <path d="M -172.117 172.734 L -206.102 207.109 C -204.018 211.275 -202.521 215.553 -201.61 219.943 C -200.698 224.332 -200.242 228.721 -200.242 233.11 C -200.242 250.151 -206.102 264.596 -217.821 276.445 C -229.539 288.294 -243.992 294.218 -261.18 294.218 C -277.938 294.218 -292.284 288.294 -304.217 276.445 C -316.151 264.596 -322.117 250.208 -322.117 233.281 C -322.117 216.353 -316.193 201.965 -304.344 190.117 C -292.495 178.267 -278.05 172.343 -261.01 172.343 C -256.62 172.343 -252.231 172.864 -247.842 173.906 C -243.453 174.947 -239.175 176.51 -235.008 178.593 L -200.633 144.609 L -235.008 110.234 C -239.175 112.317 -243.453 113.814 -247.842 114.726 C -252.231 115.637 -256.62 116.093 -261.01 116.093 C -278.05 116.093 -292.495 110.169 -304.344 98.32 C -316.193 86.471 -322.117 72.083 -322.117 55.156 C -322.117 38.228 -316.193 23.84 -304.344 11.992 C -292.495 0.142 -278.107 -5.782 -261.18 -5.782 C -244.253 -5.782 -229.865 0.142 -218.016 11.992 C -206.167 23.84 -200.242 38.285 -200.242 55.326 C -200.242 59.715 -200.698 64.104 -201.61 68.494 C -202.521 72.883 -204.018 77.161 -206.102 81.328 L -46.046 240.647 C -39.469 247.194 -37.961 254.635 -41.523 262.968 C -45.084 271.301 -51.376 275.468 -60.399 275.468 C -63.263 275.468 -65.867 275.012 -68.211 274.101 C -70.555 273.189 -72.768 271.692 -74.852 269.609 L -172.117 172.734 Z M -127.196 128.593 L -156.102 99.687 L -74.852 18.828 C -72.768 16.744 -70.555 15.247 -68.211 14.335 C -65.867 13.424 -63.263 12.968 -60.399 12.968 C -51.389 12.968 -45.165 17.135 -41.727 25.468 C -38.289 33.801 -39.833 41.231 -46.358 47.756 L -127.196 128.593 Z M -261.083 87.968 C -252.033 87.968 -244.318 84.746 -237.938 78.301 C -231.557 71.856 -228.367 64.109 -228.367 55.059 C -228.367 46.009 -231.59 38.294 -238.035 31.913 C -244.479 25.533 -252.227 22.343 -261.277 22.343 C -270.327 22.343 -278.042 25.565 -284.422 32.01 C -290.802 38.455 -293.992 46.203 -293.992 55.253 C -293.992 64.303 -290.77 72.017 -284.325 78.398 C -277.88 84.778 -270.133 87.968 -261.083 87.968 Z M -172.117 153.593 C -169.617 153.593 -167.43 152.656 -165.555 150.781 C -163.68 148.906 -162.742 146.718 -162.742 144.218 C -162.742 141.718 -163.68 139.531 -165.555 137.656 C -167.43 135.781 -169.617 134.843 -172.117 134.843 C -174.617 134.843 -176.805 135.781 -178.68 137.656 C -180.555 139.531 -181.492 141.718 -181.492 144.218 C -181.492 146.718 -180.555 148.906 -178.68 150.781 C -176.805 152.656 -174.617 153.593 -172.117 153.593 Z M -261.083 266.093 C -252.033 266.093 -244.318 262.871 -237.938 256.426 C -231.557 249.981 -228.367 242.234 -228.367 233.184 C -228.367 224.134 -231.59 216.419 -238.035 210.039 C -244.479 203.658 -252.227 200.468 -261.277 200.468 C -270.327 200.468 -278.042 203.69 -284.422 210.135 C -290.802 216.58 -293.992 224.328 -293.992 233.378 C -293.992 242.428 -290.77 250.142 -284.325 256.523 C -277.88 262.903 -270.133 266.093 -261.083 266.093 Z" style="fill: rgb(255, 255, 255); transform-origin: 103.068px -22.714px;" transform="matrix(0, -1, 1, 0, 0.000022888184, 0.000015258789)"/>
</svg>