<?xml version="1.0" encoding="utf-8"?>
<svg viewBox="0 0 525 525" xmlns="http://www.w3.org/2000/svg">
  <g transform="matrix(1, 0, 0, 1, -1.1368683772161603e-13, 0)">
    <title>Layer 1</title>
    <path id="svg_1" d="m203,0l120,0c111,0 202,90 202,203l0,120c0,111 -90,202 -203,202l-120,0c-110,0 -202,-90 -202,-203l0,-120c0,-110 90,-202 203,-202z" style="fill: rgb(255, 120, 146);"/>
  </g>
  <path d="M 185.367 400 C 178.083 400 171.868 397.408 166.721 392.224 C 161.574 387.04 159 380.809 159 373.529 L 159 232.353 C 159 225.074 161.592 218.842 166.776 213.658 C 171.96 208.474 178.191 205.882 185.471 205.882 L 194.294 205.882 L 194.294 170.588 C 194.294 151.059 201.185 134.412 214.965 120.647 C 228.746 106.882 245.413 100 264.965 100 C 284.518 100 301.157 106.882 314.882 120.647 C 328.608 134.412 335.471 151.059 335.471 170.588 L 335.471 205.882 L 344.294 205.882 C 351.574 205.882 357.805 208.474 362.989 213.658 C 368.173 218.842 370.765 225.074 370.765 232.353 L 370.765 373.529 C 370.765 380.809 368.171 387.04 362.985 392.224 C 357.798 397.408 351.563 400 344.279 400 L 185.367 400 Z M 185.471 373.529 L 344.294 373.529 L 344.294 232.353 L 185.471 232.353 L 185.471 373.529 Z M 264.96 329.412 C 272.261 329.412 278.485 326.812 283.632 321.613 C 288.779 316.414 291.353 310.164 291.353 302.863 C 291.353 295.562 288.753 289.338 283.554 284.191 C 278.355 279.044 272.105 276.471 264.804 276.471 C 257.503 276.471 251.279 279.07 246.132 284.269 C 240.985 289.468 238.412 295.718 238.412 303.019 C 238.412 310.32 241.011 316.544 246.21 321.691 C 251.41 326.838 257.66 329.412 264.96 329.412 Z M 220.765 205.882 L 309 205.882 L 309 170.588 C 309 158.333 304.711 147.917 296.132 139.338 C 287.554 130.76 277.137 126.471 264.882 126.471 C 252.628 126.471 242.211 130.76 233.632 139.338 C 225.054 147.917 220.765 158.333 220.765 170.588 L 220.765 205.882 Z M 185.471 373.529 L 185.471 232.353 L 185.471 373.529 Z" style="fill: rgb(255, 255, 255);" transform="matrix(1, 0, 0, 1, -1.1368683772161603e-13, 0)"/>
</svg>