<?xml version="1.0" encoding="utf-8"?>
<svg viewBox="0 0 525 525" xmlns="http://www.w3.org/2000/svg">
  <g>
    <title>Layer 1</title>
    <path id="path-1" d="M 203 0 L 323 0 C 434 0 525 90 525 203 L 525 323 C 525 434 435 525 322 525 L 202 525 C 92 525 0 435 0 322 L 0 202 C 0 92 90 0 203 0 Z" style="fill: rgb(25, 177, 212);">
      <title>red</title>
    </path>
  </g>
  <path d="M 320 310 L 365 265 L 349.25 248.875 L 331.25 266.875 L 331.25 220 L 308.75 220 L 308.75 266.875 L 290.75 248.875 L 275 265 L 320 310 Z M 140 385 C 131.75 385 124.687 382.063 118.813 376.187 C 112.937 370.313 110 363.25 110 355 L 110 175 C 110 166.75 112.937 159.688 118.813 153.812 C 124.687 147.938 131.75 145 140 145 L 380 145 C 388.25 145 395.312 147.938 401.188 153.812 C 407.062 159.688 410 166.75 410 175 L 410 355 C 410 363.25 407.062 370.313 401.188 376.187 C 395.312 382.063 388.25 385 380 385 L 140 385 Z M 140 355 L 380 355 L 380 175 L 140 175 L 140 355 Z M 140 355 L 140 175 L 140 355 Z M 162.5 310 L 185 310 L 185 242.5 L 200 242.5 L 200 287.5 L 222.5 287.5 L 222.5 242.5 L 237.5 242.5 L 237.5 310 L 260 310 L 260 235 C 260 230.75 258.562 227.188 255.688 224.312 C 252.812 221.438 249.25 220 245 220 L 177.5 220 C 173.25 220 169.687 221.438 166.813 224.312 C 163.937 227.188 162.5 230.75 162.5 235 L 162.5 310 Z" style="fill: rgb(255, 255, 255);"/>
</svg>