<?xml version="1.0" encoding="utf-8"?>
<svg viewBox="0 0 525 525" xmlns="http://www.w3.org/2000/svg">
  <g>
    <title>Layer 1</title>
    <path id="path-1" d="M 203 0 L 323 0 C 434 0 525 90 525 203 L 525 323 C 525 434 435 525 322 525 L 202 525 C 92 525 0 435 0 322 L 0 202 C 0 92 90 0 203 0 Z" style="fill: rgb(245, 84, 84);">
      <title>red</title>
    </path>
  </g>
  <path d="M 213.828 331.406 L 225.938 300.156 L 301.719 300.156 L 313.828 331.406 L 293.906 331.406 C 290.26 331.406 287.07 332.773 284.336 335.508 C 281.602 338.242 280.234 341.432 280.234 345.078 C 280.234 348.724 281.602 351.914 284.336 354.648 C 287.07 357.383 290.26 358.75 293.906 358.75 L 349.375 358.75 C 353.021 358.75 356.211 357.383 358.945 354.648 C 361.68 351.914 363.047 348.724 363.047 345.078 C 363.047 341.432 361.68 338.242 358.945 335.508 C 356.211 332.773 353.021 331.406 349.375 331.406 L 347.031 331.406 L 288.047 182.188 C 286.745 178.802 284.661 176.133 281.797 174.18 C 278.932 172.227 275.677 171.25 272.031 171.25 L 258.359 171.25 C 254.713 171.25 251.458 172.227 248.594 174.18 C 245.729 176.133 243.65 178.802 242.356 182.188 L 183.359 331.406 L 181.016 331.406 C 177.37 331.406 174.18 332.773 171.445 335.508 C 168.711 338.242 167.344 341.432 167.344 345.078 C 167.344 348.724 168.711 351.914 171.445 354.648 C 174.18 357.383 177.37 358.75 181.016 358.75 L 234.141 358.75 C 237.786 358.75 240.977 357.383 243.711 354.648 C 246.445 351.914 247.813 348.724 247.813 345.078 C 247.813 341.432 246.42 338.242 243.635 335.508 C 240.85 332.773 237.685 331.406 234.141 331.406 L 213.828 331.406 Z M 235.703 274.375 L 261.875 207.188 L 265.781 207.188 L 291.953 274.375 L 235.703 274.375 Z M 143.125 415 C 135.391 415 128.77 412.246 123.262 406.738 C 117.754 401.23 115 394.609 115 386.875 L 115 143.125 C 115 135.391 117.754 128.77 123.262 123.262 C 128.77 117.754 135.391 115 143.125 115 L 386.875 115 C 394.609 115 401.23 117.754 406.738 123.262 C 412.246 128.77 415 135.391 415 143.125 L 415 386.875 C 415 394.609 412.246 401.23 406.738 406.738 C 401.23 412.246 394.609 415 386.875 415 L 143.125 415 Z M 143.125 386.875 L 386.875 386.875 L 386.875 143.125 L 143.125 143.125 L 143.125 386.875 Z M 143.125 386.875 L 143.125 143.125 L 143.125 386.875 Z" style="fill: rgb(255, 255, 255);"/>
</svg>