<?xml version="1.0" encoding="utf-8"?>
<svg viewBox="0 0 525 525" xmlns="http://www.w3.org/2000/svg">
  <g transform="matrix(1, 0, 0, 1, -1.1368683772161603e-13, 0)">
    <title>Layer 1</title>
    <path id="svg_1" d="m203,0l120,0c111,0 202,90 202,203l0,120c0,111 -90,202 -203,202l-120,0c-110,0 -202,-90 -202,-203l0,-120c0,-110 90,-202 203,-202z" fill="#7882ff"/>
  </g>
  <path d="M 136.158 316.545 C 132.053 313.319 130 309.214 130 304.229 C 130 299.243 132.126 295.138 136.378 291.912 C 139.302 289.566 142.491 288.393 145.946 288.393 C 149.401 288.393 152.59 289.566 155.513 291.912 L 268.123 379.889 L 380.733 291.472 C 383.666 289.126 386.891 288.026 390.411 288.173 C 393.93 288.319 397.123 289.507 399.99 291.736 C 404.161 295.079 406.246 299.243 406.246 304.229 C 406.246 309.214 404.194 313.319 400.088 316.545 L 287.478 404.962 C 281.706 409.654 275.277 412 268.193 412 C 261.108 412 254.634 409.654 248.768 404.962 L 136.158 316.545 Z M 248.768 320.504 L 151.994 244.845 C 143.783 238.496 139.677 230.164 139.677 219.849 C 139.677 209.533 143.783 201.149 151.994 194.698 L 248.768 119.038 C 254.541 114.346 260.969 112 268.054 112 C 275.138 112 281.613 114.346 287.478 119.038 L 384.252 194.698 C 392.463 201.046 396.569 209.378 396.569 219.693 C 396.569 230.009 392.463 238.393 384.252 244.845 L 287.478 320.504 C 281.706 325.196 275.277 327.543 268.193 327.543 C 261.108 327.543 254.634 325.196 248.768 320.504 Z M 268.123 295.431 L 364.457 219.771 L 268.123 144.111 L 171.789 219.771 L 268.123 295.431 Z M 268.123 219.771 Z" style="fill: rgb(255, 255, 255);" transform="matrix(1, 0, 0, 1, -1.1368683772161603e-13, 0)"/>
</svg>