<?xml version="1.0" encoding="utf-8"?>
<svg viewBox="0 0 525 525" xmlns="http://www.w3.org/2000/svg">
  <g transform="matrix(1, 0, 0, 1, -1.1368683772161603e-13, 0)">
    <title>Layer 1</title>
    <path id="svg_1" d="m203,0l120,0c111,0 202,90 202,203l0,120c0,111 -90,202 -203,202l-120,0c-110,0 -202,-90 -202,-203l0,-120c0,-110 90,-202 203,-202z" fill="#7882ff"/>
  </g>
  <path d="M 115 275.714 L 115 147.021 C 115 138.174 118.2 130.625 124.598 124.375 C 130.997 118.125 138.512 115 147.143 115 L 248.929 115 L 248.929 275.714 L 115 275.714 Z M 216.786 243.571 Z M 281.071 115 L 382.857 115 C 391.696 115 399.263 118.147 405.558 124.442 C 411.853 130.737 415 138.304 415 147.143 L 415 222.143 L 281.071 222.143 L 281.071 115 Z M 281.071 415 L 281.071 254.286 L 415 254.286 L 415 382.857 C 415 391.488 411.853 399.003 405.558 405.402 C 399.263 411.801 391.696 415 382.857 415 L 281.071 415 Z M 115 307.857 L 248.929 307.857 L 248.929 415 L 147.143 415 C 138.512 415 130.997 411.801 124.598 405.402 C 118.2 399.003 115 391.488 115 382.857 L 115 307.857 Z M 216.786 340 Z M 313.214 190 Z M 313.214 286.429 Z M 147.143 243.571 L 216.786 243.571 L 216.786 147.143 L 147.143 147.143 L 147.143 243.571 Z M 313.214 190 L 382.857 190 L 382.857 147.143 L 313.214 147.143 L 313.214 190 Z M 313.214 286.429 L 313.214 382.857 L 382.857 382.857 L 382.857 286.429 L 313.214 286.429 Z M 147.143 340 L 147.143 382.857 L 216.786 382.857 L 216.786 340 L 147.143 340 Z" style="fill: rgb(255, 255, 255);" transform="matrix(1, 0, 0, 1, -1.1368683772161603e-13, 0)"/>
</svg>