<?xml version="1.0" encoding="utf-8"?>
<svg viewBox="0 0 525 525" xmlns="http://www.w3.org/2000/svg">
  <g>
    <title>Layer 1</title>
    <path id="path-1" d="M 203 0 L 323 0 C 434 0 525 90 525 203 L 525 323 C 525 434 435 525 322 525 L 202 525 C 92 525 0 435 0 322 L 0 202 C 0 92 90 0 203 0 Z" style="fill: rgb(25, 177, 212);">
      <title>red</title>
    </path>
  </g>
  <path d="M 165 311 L 213 311 L 213 287 L 173 287 L 173 239 L 213 239 L 213 215 L 165 215 C 160.467 215 156.667 216.533 153.601 219.601 C 150.534 222.667 149 226.467 149 231 L 149 295 C 149 299.533 150.534 303.333 153.601 306.401 C 156.667 309.467 160.467 311 165 311 Z M 227.4 311 L 275.4 311 C 279.933 311 283.734 309.467 286.801 306.401 C 289.867 303.333 291.4 299.533 291.4 295 L 291.4 271 C 291.4 266.467 289.867 262.267 286.801 258.401 C 283.734 254.533 279.933 252.6 275.4 252.6 L 251.4 252.6 L 251.4 239 L 291.4 239 L 291.4 215 L 243.4 215 C 238.867 215 235.067 216.533 232.001 219.601 C 228.934 222.667 227.4 226.467 227.4 231 L 227.4 255 C 227.4 259.533 228.934 263.601 232.001 267.201 C 235.067 270.801 238.867 272.6 243.4 272.6 L 267.4 272.6 L 267.4 287 L 227.4 287 L 227.4 311 Z M 333 311 L 357 311 L 385 215 L 361 215 L 345 270.2 L 329 215 L 305 215 L 333 311 Z M 137 391 C 128.2 391 120.667 387.867 114.401 381.601 C 108.134 375.333 105 367.8 105 359 L 105 167 C 105 158.2 108.134 150.667 114.401 144.401 C 120.667 138.133 128.2 135 137 135 L 393 135 C 401.8 135 409.334 138.133 415.601 144.401 C 421.867 150.667 425 158.2 425 167 L 425 359 C 425 367.8 421.867 375.333 415.601 381.601 C 409.334 387.867 401.8 391 393 391 L 137 391 Z M 137 359 L 393 359 L 393 167 L 137 167 L 137 359 Z M 137 359 L 137 167 L 137 359 Z" style="fill: rgb(255, 255, 255);"/>
</svg>