<?xml version="1.0" encoding="utf-8"?>
<svg viewBox="0 0 525 525" xmlns="http://www.w3.org/2000/svg">
  <g transform="matrix(1, 0, 0, 1, -1.1368683772161603e-13, 0)">
    <title>Layer 1</title>
    <path id="svg_1" d="m203,0l120,0c111,0 202,90 202,203l0,120c0,111 -90,202 -203,202l-120,0c-110,0 -202,-90 -202,-203l0,-120c0,-110 90,-202 203,-202z" fill="#7882ff"/>
  </g>
  <path d="M 262.353 415 C 246.421 415 232.88 409.424 221.728 398.272 C 210.576 387.12 205 373.579 205 357.647 C 205 344.026 209.167 332.043 217.5 321.696 C 225.833 311.35 236.372 304.651 249.118 301.601 L 249.118 273.824 L 196.176 273.824 C 188.897 273.824 182.665 271.232 177.482 266.048 C 172.298 260.864 169.706 254.632 169.706 247.353 L 169.706 229.706 L 143.235 229.706 C 139.485 229.706 136.342 228.438 133.805 225.901 C 131.268 223.364 130 220.221 130 216.471 L 130 137.059 C 130 133.309 131.268 130.165 133.805 127.629 C 136.342 125.092 139.485 123.824 143.235 123.824 L 222.647 123.824 C 226.397 123.824 229.54 125.092 232.077 127.629 C 234.614 130.165 235.882 133.309 235.882 137.059 L 235.882 216.471 C 235.882 220.221 234.614 223.364 232.077 225.901 C 229.54 228.438 226.397 229.706 222.647 229.706 L 196.176 229.706 L 196.176 247.353 L 332.941 247.353 L 332.941 228.235 C 320.196 225.294 309.657 218.65 301.324 208.304 C 292.99 197.957 288.824 185.974 288.824 172.353 C 288.824 156.422 294.399 142.88 305.551 131.728 C 316.703 120.576 330.245 115 346.176 115 C 362.108 115 375.649 120.576 386.801 131.728 C 397.953 142.88 403.529 156.422 403.529 172.353 C 403.529 185.974 399.363 197.957 391.029 208.304 C 382.696 218.65 372.157 225.294 359.412 228.235 L 359.412 247.353 C 359.412 254.632 356.82 260.864 351.636 266.048 C 346.452 271.232 340.221 273.824 332.941 273.824 L 275.588 273.824 L 275.588 301.765 C 288.333 304.706 298.872 311.35 307.206 321.696 C 315.539 332.043 319.706 344.026 319.706 357.647 C 319.706 373.579 314.13 387.12 302.978 398.272 C 291.826 409.424 278.284 415 262.353 415 Z M 346.228 203.235 C 354.772 203.235 362.046 200.216 368.051 194.176 C 374.056 188.136 377.059 180.845 377.059 172.301 C 377.059 163.757 374.039 156.483 368 150.478 C 361.96 144.473 354.668 141.471 346.125 141.471 C 337.581 141.471 330.306 144.49 324.301 150.53 C 318.296 156.569 315.294 163.861 315.294 172.405 C 315.294 180.949 318.314 188.223 324.353 194.228 C 330.393 200.233 337.685 203.235 346.228 203.235 Z M 156.471 203.235 L 209.412 203.235 L 209.412 150.294 L 156.471 150.294 L 156.471 203.235 Z M 262.405 388.529 C 270.949 388.529 278.223 385.51 284.228 379.47 C 290.233 373.431 293.235 366.139 293.235 357.595 C 293.235 349.051 290.215 341.777 284.176 335.772 C 278.136 329.767 270.844 326.765 262.301 326.765 C 253.757 326.765 246.483 329.785 240.478 335.824 C 234.473 341.864 231.471 349.156 231.471 357.699 C 231.471 366.243 234.49 373.517 240.53 379.522 C 246.569 385.527 253.861 388.529 262.405 388.529 Z M 182.941 176.765 Z M 346.176 172.353 Z M 262.353 357.647 Z" style="fill: rgb(255, 255, 255);" transform="matrix(1, 0, 0, 1, -1.1368683772161603e-13, 0)"/>
</svg>