<?xml version="1.0" encoding="utf-8"?>
<svg viewBox="0 0 525 525" xmlns="http://www.w3.org/2000/svg">
  <g transform="matrix(1, 0, 0, 1, -1.1368683772161603e-13, 0)">
    <title>Layer 1</title>
    <path id="svg_1" d="m203,0l120,0c111,0 202,90 202,203l0,120c0,111 -90,202 -203,202l-120,0c-110,0 -202,-90 -202,-203l0,-120c0,-110 90,-202 203,-202z" style="fill: rgb(255, 120, 146);"/>
  </g>
  <path d="M 344.922 203.75 C 338.151 203.75 332.552 201.537 328.125 197.109 C 323.698 192.682 321.484 187.084 321.484 180.312 C 321.484 174.584 323.568 168.724 327.734 162.734 C 331.901 156.745 335.807 151.667 339.453 147.5 C 340.755 145.937 342.578 145.156 344.922 145.156 C 347.266 145.156 349.089 145.937 350.391 147.5 C 354.036 151.667 357.943 156.745 362.109 162.734 C 366.276 168.724 368.359 174.584 368.359 180.312 C 368.359 186.823 366.146 192.357 361.719 196.914 C 357.292 201.471 351.693 203.75 344.922 203.75 Z M 379.764 297.5 C 370.598 297.5 362.825 294.328 356.445 287.984 C 350.065 281.641 346.875 273.875 346.875 264.688 C 346.875 256.094 349.675 247.5 355.273 238.906 C 360.872 230.312 366.284 222.761 371.507 216.25 C 373.645 213.386 376.375 211.953 379.699 211.953 C 383.023 211.953 385.754 213.386 387.891 216.25 C 393.099 222.761 398.503 230.312 404.102 238.906 C 409.7 247.5 412.5 256.094 412.5 264.688 C 412.5 273.875 409.336 281.641 403.007 287.984 C 396.678 294.328 388.93 297.5 379.764 297.5 Z M 225 320.938 L 225 339.688 C 225 343.672 226.34 347.012 229.019 349.707 C 231.699 352.402 235.019 353.75 238.98 353.75 C 242.941 353.75 246.289 352.402 249.023 349.707 C 251.758 347.012 253.125 343.672 253.125 339.688 L 253.125 320.938 L 271.875 320.938 C 275.859 320.938 279.199 319.598 281.895 316.918 C 284.59 314.239 285.938 310.918 285.938 306.957 C 285.938 302.996 284.59 299.648 281.895 296.914 C 279.199 294.18 275.859 292.813 271.875 292.813 L 253.125 292.813 L 253.125 274.063 C 253.125 270.078 251.785 266.738 249.106 264.043 C 246.426 261.348 243.106 260 239.145 260 C 235.184 260 231.836 261.348 229.102 264.043 C 226.367 266.738 225 270.078 225 274.063 L 225 292.813 L 206.25 292.813 C 202.266 292.813 198.926 294.152 196.23 296.832 C 193.535 299.511 192.188 302.832 192.188 306.793 C 192.188 310.754 193.535 314.102 196.23 316.836 C 198.926 319.57 202.266 320.938 206.25 320.938 L 225 320.938 Z M 178.125 381.875 L 300 381.875 L 300 264.688 C 300 247.761 294.075 233.373 282.227 221.523 C 270.378 209.675 255.925 203.75 238.867 203.75 C 221.81 203.75 207.422 209.675 195.703 221.523 C 183.984 233.373 178.125 247.761 178.125 264.688 L 178.125 381.875 Z M 178.125 381.875 L 300 381.875 L 178.125 381.875 Z M 178.125 410 C 170.391 410 163.77 407.246 158.262 401.738 C 152.754 396.23 150 389.609 150 381.875 L 150 265.469 C 150 243.334 157.031 223.932 171.094 207.266 C 185.156 190.599 203.125 180.443 225 176.797 L 225 138.125 L 211.02 138.125 C 207.059 138.125 203.711 136.786 200.977 134.106 C 198.242 131.426 196.875 128.106 196.875 124.145 C 196.875 120.184 198.223 116.836 200.918 114.102 C 203.613 111.367 206.953 110 210.938 110 L 281.25 110 C 288.542 110 295.768 110.846 302.93 112.539 C 310.091 114.232 316.797 116.901 323.047 120.547 C 325.13 121.849 326.888 123.542 328.32 125.625 C 329.753 127.709 330.469 130.162 330.469 132.987 C 330.469 136.988 329.059 140.343 326.239 143.049 C 323.418 145.756 320.011 147.109 316.016 147.109 C 314.974 147.109 312.761 146.589 309.375 145.547 C 304.999 143.238 300.454 141.424 295.741 140.104 C 291.029 138.785 286.198 138.125 281.25 138.125 L 253.125 138.125 L 253.125 176.406 C 275.185 179.977 293.525 190.18 308.147 207.014 C 322.768 223.848 330.078 243.334 330.078 265.469 L 330.078 381.875 C 330.078 389.609 327.279 396.23 321.68 401.738 C 316.081 407.246 309.505 410 301.953 410 L 178.125 410 Z" style="fill: rgb(255, 255, 255);" transform="matrix(1, 0, 0, 1, -1.1368683772161603e-13, 0)"/>
</svg>