<?xml version="1.0" encoding="utf-8"?>
<svg viewBox="0 0 525 525" xmlns="http://www.w3.org/2000/svg">
  <g transform="matrix(1, 0, 0, 1, -1.1368683772161603e-13, 0)">
    <title>Layer 1</title>
    <path id="svg_1" d="m203,0l120,0c111,0 202,90 202,203l0,120c0,111 -90,202 -203,202l-120,0c-110,0 -202,-90 -202,-203l0,-120c0,-110 90,-202 203,-202z" fill="#7882ff"/>
  </g>
  <path d="M 152.143 382.857 L 189.643 382.857 C 194.196 382.857 198.013 384.388 201.094 387.45 C 204.174 390.513 205.714 394.308 205.714 398.834 C 205.714 403.362 204.174 407.187 201.094 410.312 C 198.013 413.437 194.196 415 189.643 415 L 136.071 415 C 131.518 415 127.701 413.46 124.621 410.379 C 121.54 407.299 120 403.482 120 398.929 L 120 345.357 C 120 340.804 121.531 336.987 124.593 333.906 C 127.656 330.826 131.45 329.286 135.977 329.286 C 140.504 329.286 144.33 330.826 147.455 333.906 C 150.58 336.987 152.143 340.804 152.143 345.357 L 152.143 382.857 Z M 387.857 382.857 L 387.857 345.357 C 387.857 340.804 389.388 336.987 392.45 333.906 C 395.513 330.826 399.308 329.286 403.834 329.286 C 408.362 329.286 412.187 330.826 415.312 333.906 C 418.437 336.987 420 340.804 420 345.357 L 420 398.929 C 420 403.482 418.46 407.299 415.379 410.379 C 412.299 413.46 408.482 415 403.929 415 L 350.357 415 C 345.804 415 341.987 413.469 338.906 410.407 C 335.826 407.344 334.286 403.55 334.286 399.023 C 334.286 394.496 335.826 390.67 338.906 387.545 C 341.987 384.42 345.804 382.857 350.357 382.857 L 387.857 382.857 Z M 152.143 147.143 L 152.143 184.643 C 152.143 189.196 150.612 193.013 147.55 196.094 C 144.487 199.174 140.692 200.714 136.166 200.714 C 131.639 200.714 127.812 199.174 124.687 196.094 C 121.562 193.013 120 189.196 120 184.643 L 120 131.071 C 120 126.518 121.54 122.701 124.621 119.621 C 127.701 116.54 131.518 115 136.071 115 L 189.643 115 C 194.196 115 198.013 116.531 201.094 119.593 C 204.174 122.656 205.714 126.45 205.714 130.977 C 205.714 135.504 204.174 139.33 201.094 142.455 C 198.013 145.58 194.196 147.143 189.643 147.143 L 152.143 147.143 Z M 387.857 147.143 L 350.357 147.143 C 345.804 147.143 341.987 145.612 338.906 142.55 C 335.826 139.487 334.286 135.692 334.286 131.166 C 334.286 126.639 335.826 122.813 338.906 119.688 C 341.987 116.563 345.804 115 350.357 115 L 403.929 115 C 408.482 115 412.299 116.54 415.379 119.621 C 418.46 122.701 420 126.518 420 131.071 L 420 184.643 C 420 189.196 418.469 193.013 415.407 196.094 C 412.344 199.174 408.55 200.714 404.023 200.714 C 399.496 200.714 395.67 199.174 392.545 196.094 C 389.42 193.013 387.857 189.196 387.857 184.643 L 387.857 147.143 Z" style="fill: rgb(255, 255, 255);" transform="matrix(1, 0, 0, 1, -1.1368683772161603e-13, 0)"/>
</svg>