<?xml version="1.0" encoding="utf-8"?>
<svg viewBox="0 0 525 525" xmlns="http://www.w3.org/2000/svg">
  <g>
    <title>Layer 1</title>
    <path id="path-1" d="M 203 0 L 323 0 C 434 0 525 90 525 203 L 525 323 C 525 434 435 525 322 525 L 202 525 C 92 525 0 435 0 322 L 0 202 C 0 92 90 0 203 0 Z" style="fill: rgb(71, 181, 189);">
      <title>red</title>
    </path>
  </g>
  <path d="M 241.667 376.667 L 175 376.667 C 168.125 376.667 162.24 374.219 157.344 369.323 C 152.448 364.427 150 358.542 150 351.667 L 150 168.333 C 150 161.458 152.448 155.573 157.344 150.677 C 162.24 145.781 168.125 143.333 175 143.333 L 241.667 143.333 L 241.667 122.5 C 241.667 118.958 242.858 115.99 245.239 113.594 C 247.621 111.198 250.573 110 254.093 110 C 257.615 110 260.59 111.198 263.021 113.594 C 265.451 115.99 266.667 118.958 266.667 122.5 L 266.667 397.5 C 266.667 401.042 265.476 404.01 263.094 406.406 C 260.712 408.802 257.761 410 254.24 410 C 250.719 410 247.743 408.802 245.312 406.406 C 242.882 404.01 241.667 401.042 241.667 397.5 L 241.667 376.667 Z M 175.347 351.667 L 241.667 351.667 L 241.667 272.847 L 175.347 351.667 Z M 291.667 376.667 L 291.667 272.847 L 358.333 352.014 L 358.333 168.333 L 291.667 168.333 L 291.667 143.333 L 358.333 143.333 C 365.208 143.333 371.094 145.781 375.99 150.677 C 380.885 155.573 383.333 161.458 383.333 168.333 L 383.333 351.667 C 383.333 358.542 380.885 364.427 375.99 369.323 C 371.094 374.219 365.208 376.667 358.333 376.667 L 291.667 376.667 Z" style="fill: rgb(255, 255, 255);"/>
</svg>