<?xml version="1.0" encoding="utf-8"?>
<svg viewBox="0 0 525 525" xmlns="http://www.w3.org/2000/svg">
  <g>
    <title>Layer 1</title>
    <path id="path-1" d="M 203 0 L 323 0 C 434 0 525 90 525 203 L 525 323 C 525 434 435 525 322 525 L 202 525 C 92 525 0 435 0 322 L 0 202 C 0 92 90 0 203 0 Z" style="fill: rgb(212, 172, 25);">
      <title>red</title>
    </path>
  </g>
  <path d="M 338.82 241.05 L 125.571 163.856 C 121.068 162.247 117.771 159.272 115.68 154.93 C 113.589 150.588 113.348 146.166 114.957 141.662 C 116.564 137.159 119.54 133.862 123.882 131.772 C 128.224 129.682 132.647 129.44 137.15 131.048 L 401.058 226.576 C 408.134 228.828 413.762 233.019 417.944 239.15 C 422.125 245.282 424.216 252.026 424.216 259.383 L 424.216 345.262 C 424.216 354.815 420.815 362.993 414.012 369.795 C 407.21 376.599 399.031 379.999 389.479 379.999 L 134.738 379.999 C 125.185 379.999 117.007 376.594 110.204 369.783 C 103.402 362.972 100 354.784 100 345.219 L 100 275.66 C 100 266.096 103.402 257.936 110.204 251.182 C 117.007 244.428 125.185 241.05 134.738 241.05 L 338.82 241.05 Z M 389.479 345.262 L 389.479 275.788 L 134.738 275.788 L 134.738 345.262 L 389.479 345.262 Z M 244.72 327.894 L 348.815 327.894 C 353.73 327.894 357.877 326.239 361.255 322.929 C 364.632 319.619 366.32 315.518 366.32 310.627 C 366.32 305.734 364.658 301.599 361.333 298.222 C 358.007 294.844 353.886 293.156 348.971 293.156 L 244.876 293.156 C 239.96 293.156 235.814 294.811 232.437 298.12 C 229.059 301.43 227.37 305.531 227.37 310.423 C 227.37 315.316 229.034 319.45 232.359 322.828 C 235.684 326.205 239.804 327.894 244.72 327.894 Z M 175.163 327.894 C 180.055 327.894 184.19 326.239 187.568 322.929 C 190.944 319.619 192.633 315.518 192.633 310.627 C 192.633 305.734 190.978 301.599 187.669 298.222 C 184.359 294.844 180.258 293.156 175.366 293.156 C 170.473 293.156 166.339 294.811 162.962 298.12 C 159.584 301.43 157.896 305.531 157.896 310.423 C 157.896 315.316 159.55 319.45 162.86 322.828 C 166.169 326.205 170.27 327.894 175.163 327.894 Z M 134.738 345.262 L 134.738 275.788 L 134.738 345.262 Z" style="fill: rgb(255, 255, 255);"/>
</svg>