<?xml version="1.0" encoding="utf-8"?>
<svg viewBox="0 0 525 525" xmlns="http://www.w3.org/2000/svg">
  <g transform="matrix(1, 0, 0, 1, -1.1368683772161603e-13, 0)">
    <title>Layer 1</title>
    <path id="svg_1" d="m203,0l120,0c111,0 202,90 202,203l0,120c0,111 -90,202 -203,202l-120,0c-110,0 -202,-90 -202,-203l0,-120c0,-110 90,-202 203,-202z" style="fill: rgb(255, 120, 146);"/>
  </g>
  <g transform="matrix(1, 0, 0, 1, -1.1368683772161603e-13, 0)"/>
  <path d="M 246.719 285.217 L 223.004 261.502 C 220.202 258.604 216.932 257.154 213.194 257.154 C 209.458 257.154 206.14 258.604 203.241 261.502 C 200.343 264.4 198.893 267.782 198.893 271.647 C 198.893 275.511 200.343 278.849 203.241 281.66 L 236.443 315.257 C 239.317 318.155 242.671 319.605 246.504 319.605 C 250.337 319.605 253.702 318.155 256.601 315.257 L 323.794 248.063 C 326.693 245.165 328.142 241.871 328.142 238.182 C 328.142 234.493 326.693 231.199 323.794 228.3 C 320.896 225.402 317.514 223.953 313.649 223.953 C 309.785 223.953 306.447 225.402 303.636 228.3 L 246.719 285.217 Z M 263.32 420 C 261.739 420 260.158 419.934 258.577 419.802 C 256.996 419.671 255.547 419.341 254.229 418.814 C 219.71 407.483 192.042 386.535 171.225 355.968 C 150.409 325.402 140 292.068 140 255.968 L 140 184.822 C 140 178.843 141.647 173.461 144.941 168.677 C 148.235 163.894 152.648 160.448 158.182 158.34 L 253.043 121.976 C 256.469 120.659 259.895 120 263.32 120 C 266.746 120 270.172 120.659 273.597 121.976 L 368.458 158.34 C 373.992 160.448 378.406 163.894 381.7 168.677 C 384.994 173.461 386.64 178.843 386.64 184.822 L 386.64 255.968 C 386.64 292.068 376.232 325.402 355.415 355.968 C 334.598 386.535 306.93 407.483 272.411 418.814 C 271.094 419.341 269.644 419.671 268.063 419.802 C 266.482 419.934 264.901 420 263.32 420 Z M 263.32 391.937 C 290.725 383.439 313.386 366.443 331.304 340.949 C 349.223 315.455 358.182 287.128 358.182 255.968 L 358.182 184.822 L 263.32 148.459 L 168.458 184.822 L 168.458 255.968 C 168.458 287.128 177.418 315.455 195.336 340.949 C 213.255 366.443 235.916 383.439 263.32 391.937 Z M 263.32 270.198 Z" style="fill: rgb(255, 255, 255);" transform="matrix(1, 0, 0, 1, -1.1368683772161603e-13, 0)"/>
</svg>