<?xml version="1.0" encoding="utf-8"?>
<svg viewBox="0 0 525 525" xmlns="http://www.w3.org/2000/svg">
  <g transform="matrix(1, 0, 0, 1, -1.1368683772161603e-13, 0)">
    <title>Layer 1</title>
    <path id="svg_1" d="m203,0l120,0c111,0 202,90 202,203l0,120c0,111 -90,202 -203,202l-120,0c-110,0 -202,-90 -202,-203l0,-120c0,-110 90,-202 203,-202z" style="fill: rgb(255, 120, 146);"/>
  </g>
  <path d="M 248.7 317.23 L 277.94 317.23 C 279.96 317.23 281.72 316.37 283.21 314.64 C 284.71 312.91 285.19 311.01 284.66 308.93 L 277.55 266.25 C 281.96 263.89 285.44 260.47 287.97 255.99 C 290.51 251.52 291.78 246.57 291.78 241.15 C 291.78 233.37 288.98 226.72 283.39 221.19 C 277.8 215.65 271.09 212.89 263.24 212.89 C 255.39 212.89 248.7 215.67 243.16 221.25 C 237.63 226.82 234.86 233.52 234.86 241.34 C 234.86 246.72 236.13 251.63 238.67 256.07 C 241.2 260.52 244.68 263.91 249.09 266.25 L 241.98 308.93 C 241.45 311.01 241.93 312.91 243.43 314.64 C 244.92 316.37 246.68 317.23 248.7 317.23 Z M 263.32 420 C 261.74 420 260.16 419.93 258.58 419.8 C 257 419.67 255.55 419.34 254.23 418.81 C 219.71 407.48 192.04 386.53 171.23 355.97 C 150.41 325.4 140 292.07 140 255.97 L 140 184.82 C 140 178.84 141.65 173.46 144.94 168.68 C 148.23 163.89 152.65 160.45 158.18 158.34 L 253.04 121.98 C 256.47 120.66 259.89 120 263.32 120 C 266.75 120 270.17 120.66 273.6 121.98 L 368.46 158.34 C 373.99 160.45 378.41 163.89 381.7 168.68 C 384.99 173.46 386.64 178.84 386.64 184.82 L 386.64 255.97 C 386.64 292.07 376.23 325.4 355.42 355.97 C 334.6 386.53 306.93 407.48 272.41 418.81 C 271.09 419.34 269.64 419.67 268.06 419.8 C 266.48 419.93 264.9 420 263.32 420 Z M 263.32 391.94 C 290.72 383.44 313.39 366.44 331.3 340.95 C 349.22 315.45 358.18 287.13 358.18 255.97 L 358.18 184.82 L 263.32 148.46 L 168.46 184.82 L 168.46 255.97 C 168.46 287.13 177.42 315.45 195.34 340.95 C 213.25 366.44 235.92 383.44 263.32 391.94 Z M 263.32 270.2 Z" style="fill: rgb(253, 253, 253);" transform="matrix(1, 0, 0, 1, -1.1368683772161603e-13, 0)"/>
</svg>