<?xml version="1.0" encoding="utf-8"?>
<svg viewBox="0 0 525 525" xmlns="http://www.w3.org/2000/svg">
  <g>
    <title>Layer 1</title>
    <path id="path-1" d="M 203 0 L 323 0 C 434 0 525 90 525 203 L 525 323 C 525 434 435 525 322 525 L 202 525 C 92 525 0 435 0 322 L 0 202 C 0 92 90 0 203 0 Z" style="fill: rgb(25, 101, 212);">
      <title>red</title>
    </path>
  </g>
  <path d="M 283.759 259.397 C 304.736 243.592 321.474 225.894 333.974 206.303 C 346.474 186.712 352.724 167.198 352.724 147.759 C 352.724 138.85 351.216 132.169 348.198 127.716 C 345.181 123.262 340.655 121.034 334.621 121.034 C 319.966 121.034 307.538 131.81 297.336 153.362 C 287.135 174.914 282.035 201.063 282.035 231.81 C 282.035 236.968 282.178 241.85 282.466 246.454 C 282.753 251.059 283.184 255.374 283.759 259.397 Z M 116.517 317.155 C 113.357 320.316 109.764 321.825 105.741 321.681 C 101.719 321.537 98.126 319.885 94.966 316.724 C 91.805 313.563 90.224 309.9 90.224 305.733 C 90.224 301.566 91.805 297.902 94.966 294.741 L 113.5 276.207 L 94.535 257.241 C 91.374 254.081 89.865 250.417 90.009 246.25 C 90.152 242.083 91.805 238.419 94.966 235.259 C 98.126 232.098 101.79 230.517 105.957 230.517 C 110.124 230.517 113.788 232.098 116.948 235.259 L 135.483 254.224 L 154.448 235.259 C 157.609 232.098 161.273 230.517 165.44 230.517 C 169.606 230.517 173.27 232.098 176.431 235.259 C 179.592 238.419 181.172 242.083 181.172 246.25 C 181.172 250.417 179.592 254.081 176.431 257.241 L 157.466 276.207 L 176.431 295.172 C 179.592 298.333 181.172 301.925 181.172 305.948 C 181.172 309.971 179.592 313.563 176.431 316.724 C 173.27 319.885 169.606 321.465 165.44 321.465 C 161.273 321.465 157.609 319.885 154.448 316.724 L 135.483 298.19 L 116.517 317.155 Z M 307.466 327.931 C 299.132 327.931 291.661 326.063 285.052 322.328 C 278.443 318.592 272.695 313.276 267.81 306.379 C 262.925 308.965 258.04 311.408 253.155 313.707 C 248.27 316.006 243.241 318.305 238.069 320.603 C 234.046 322.328 230.048 322.352 226.076 320.678 C 222.103 319.003 219.348 316.105 217.81 311.983 C 216.374 307.96 216.661 304.009 218.672 300.129 C 220.684 296.25 223.701 293.448 227.724 291.724 C 232.609 289.712 237.35 287.557 241.948 285.259 C 246.546 282.96 251.144 280.517 255.741 277.931 C 254.017 271.427 252.724 264.331 251.862 256.644 C 251 248.958 250.569 240.68 250.569 231.81 C 250.856 189.569 258.687 155.374 274.06 129.224 C 289.434 103.075 309.621 90 334.621 90 C 350.138 90 362.207 95.077 370.828 105.231 C 379.448 115.385 383.759 129.561 383.759 147.759 C 383.759 173.908 376 199.267 360.483 223.836 C 344.966 248.405 323.126 270.46 294.966 290 C 296.977 292.299 299.06 294.023 301.216 295.172 C 303.371 296.322 305.885 296.897 308.759 296.897 C 315.655 296.897 323.414 293.448 332.034 286.552 C 340.655 279.655 348.845 270.172 356.603 258.103 C 358.902 254.368 362.135 251.853 366.302 250.56 C 370.469 249.267 374.563 249.425 378.586 251.034 C 382.609 252.874 385.411 255.788 386.991 259.778 C 388.572 263.768 388.931 267.951 388.069 272.328 C 387.207 276.993 386.776 281.464 386.776 285.74 C 386.776 290.017 387.35 293.592 388.5 296.465 C 390.336 295.63 392.447 294.271 394.834 292.39 C 397.22 290.509 399.707 288.419 402.293 286.121 C 405.454 282.96 409.118 281.236 413.284 280.948 C 417.451 280.661 421.259 281.81 424.707 284.397 C 428.155 286.983 430.095 290.431 430.526 294.741 C 430.957 299.052 429.545 302.834 426.291 306.088 C 419.488 312.891 412.67 318.233 405.838 322.112 C 399.005 325.991 392.507 327.931 386.345 327.931 C 379.975 327.931 374.288 325.848 369.283 321.681 C 364.278 317.514 360.626 311.839 358.328 304.655 C 349.994 312.988 341.565 318.951 333.04 322.543 C 324.516 326.135 315.991 327.931 307.466 327.931 Z M 120.056 390 C 115.685 390 111.991 388.522 108.974 385.565 C 105.957 382.608 104.448 378.944 104.448 374.574 C 104.448 370.203 105.927 366.509 108.883 363.491 C 111.84 360.474 115.504 358.965 119.875 358.965 C 124.246 358.965 127.94 360.444 130.957 363.4 C 133.974 366.357 135.483 370.021 135.483 374.392 C 135.483 378.763 134.004 382.457 131.048 385.474 C 128.091 388.491 124.427 390 120.056 390 Z M 184.712 390 C 180.341 390 176.647 388.522 173.629 385.565 C 170.612 382.608 169.103 378.944 169.103 374.574 C 169.103 370.203 170.582 366.509 173.538 363.491 C 176.495 360.474 180.159 358.965 184.53 358.965 C 188.901 358.965 192.595 360.444 195.612 363.4 C 198.629 366.357 200.138 370.021 200.138 374.392 C 200.138 378.763 198.66 382.457 195.703 385.474 C 192.746 388.491 189.082 390 184.712 390 Z M 249.367 390 C 244.996 390 241.302 388.522 238.285 385.565 C 235.267 382.608 233.759 378.944 233.759 374.574 C 233.759 370.203 235.237 366.509 238.194 363.491 C 241.15 360.474 244.814 358.965 249.185 358.965 C 253.556 358.965 257.25 360.444 260.267 363.4 C 263.285 366.357 264.793 370.021 264.793 374.392 C 264.793 378.763 263.315 382.457 260.358 385.474 C 257.401 388.491 253.738 390 249.367 390 Z M 314.022 390 C 309.651 390 305.957 388.522 302.94 385.565 C 299.922 382.608 298.414 378.944 298.414 374.574 C 298.414 370.203 299.892 366.509 302.849 363.491 C 305.806 360.474 309.469 358.965 313.84 358.965 C 318.211 358.965 321.905 360.444 324.922 363.4 C 327.94 366.357 329.448 370.021 329.448 374.392 C 329.448 378.763 327.97 382.457 325.013 385.474 C 322.056 388.491 318.393 390 314.022 390 Z M 378.677 390 C 374.306 390 370.612 388.522 367.595 385.565 C 364.578 382.608 363.069 378.944 363.069 374.574 C 363.069 370.203 364.547 366.509 367.504 363.491 C 370.461 360.474 374.125 358.965 378.495 358.965 C 382.866 358.965 386.56 360.444 389.578 363.4 C 392.595 366.357 394.103 370.021 394.103 374.392 C 394.103 378.763 392.625 382.457 389.669 385.474 C 386.712 388.491 383.048 390 378.677 390 Z" style="fill: rgb(255, 255, 255);"/>
</svg>