<?xml version="1.0" encoding="utf-8"?>
<svg viewBox="0 0 525 525" xmlns="http://www.w3.org/2000/svg">
  <g transform="matrix(1, 0, 0, 1, -1.1368683772161603e-13, 0)">
    <title>Layer 1</title>
    <path id="svg_1" d="m203,0l120,0c111,0 202,90 202,203l0,120c0,111 -90,202 -203,202l-120,0c-110,0 -202,-90 -202,-203l0,-120c0,-110 90,-202 203,-202z" fill="#7882ff"/>
  </g>
  <path d="M 270 211.429 L 270 334.643 C 270 339.196 271.531 343.013 274.593 346.094 C 277.656 349.174 281.45 350.714 285.977 350.714 C 290.504 350.714 294.33 349.174 297.455 346.094 C 300.58 343.013 302.143 339.196 302.143 334.643 L 302.143 195.357 C 302.143 190.804 300.603 186.987 297.522 183.906 C 294.442 180.826 290.625 179.286 286.071 179.286 L 243.214 179.286 C 238.661 179.286 234.844 180.817 231.763 183.879 C 228.683 186.942 227.143 190.736 227.143 195.263 C 227.143 199.79 228.683 203.616 231.763 206.741 C 234.844 209.866 238.661 211.429 243.214 211.429 L 270 211.429 Z M 152.143 415 C 143.304 415 135.737 411.853 129.442 405.558 C 123.147 399.263 120 391.696 120 382.857 L 120 147.143 C 120 138.304 123.147 130.737 129.442 124.442 C 135.737 118.147 143.304 115 152.143 115 L 387.857 115 C 396.696 115 404.263 118.147 410.558 124.442 C 416.853 130.737 420 138.304 420 147.143 L 420 382.857 C 420 391.696 416.853 399.263 410.558 405.558 C 404.263 411.853 396.696 415 387.857 415 L 152.143 415 Z M 152.143 382.857 L 387.857 382.857 L 387.857 147.143 L 152.143 147.143 L 152.143 382.857 Z M 152.143 147.143 L 152.143 382.857 L 152.143 147.143 Z" style="fill: rgb(255, 255, 255);" transform="matrix(1, 0, 0, 1, -1.1368683772161603e-13, 0)"/>
</svg>