<?xml version="1.0" encoding="utf-8"?>
<svg viewBox="0 0 525 525" xmlns="http://www.w3.org/2000/svg">
  <g transform="matrix(1, 0, 0, 1, -1.1368683772161603e-13, 0)">
    <title>Layer 1</title>
    <path id="svg_1" d="m203,0l120,0c111,0 202,90 202,203l0,120c0,111 -90,202 -203,202l-120,0c-110,0 -202,-90 -202,-203l0,-120c0,-110 90,-202 203,-202z" fill="#7882ff"/>
  </g>
  <path d="M 225 385 C 216.406 385 209.049 381.931 202.93 375.794 C 196.81 369.655 193.75 362.276 193.75 353.659 C 193.75 345.039 196.81 337.691 202.93 331.614 C 209.049 325.539 216.406 322.5 225 322.5 L 402.084 322.5 C 410.676 322.5 418.034 325.569 424.154 331.706 C 430.274 337.845 433.334 345.224 433.334 353.841 C 433.334 362.461 430.274 369.809 424.154 375.885 C 418.034 381.961 410.676 385 402.084 385 L 225 385 Z M 225 291.25 C 216.406 291.25 209.049 288.181 202.93 282.044 C 196.81 275.905 193.75 268.526 193.75 259.909 C 193.75 251.289 196.81 243.941 202.93 237.864 C 209.049 231.789 216.406 228.75 225 228.75 L 402.084 228.75 C 410.676 228.75 418.034 231.819 424.154 237.956 C 430.274 244.095 433.334 251.474 433.334 260.091 C 433.334 268.711 430.274 276.059 424.154 282.135 C 418.034 288.211 410.676 291.25 402.084 291.25 L 225 291.25 Z M 225 197.5 C 216.406 197.5 209.049 194.431 202.93 188.294 C 196.81 182.155 193.75 174.776 193.75 166.159 C 193.75 157.539 196.81 150.191 202.93 144.115 C 209.049 138.039 216.406 135 225 135 L 402.084 135 C 410.676 135 418.034 138.069 424.154 144.206 C 430.274 150.345 433.334 157.724 433.334 166.341 C 433.334 174.961 430.274 182.309 424.154 188.385 C 418.034 194.461 410.676 197.5 402.084 197.5 L 225 197.5 Z M 131.159 197.5 C 122.539 197.5 115.191 194.431 109.114 188.294 C 103.039 182.155 100 174.776 100 166.159 C 100 157.539 103.069 150.191 109.206 144.115 C 115.345 138.039 122.724 135 131.341 135 C 139.961 135 147.309 138.069 153.385 144.206 C 159.461 150.345 162.5 157.724 162.5 166.341 C 162.5 174.961 159.431 182.309 153.294 188.385 C 147.155 194.461 139.776 197.5 131.159 197.5 Z M 131.159 291.25 C 122.539 291.25 115.191 288.181 109.114 282.044 C 103.039 275.905 100 268.526 100 259.909 C 100 251.289 103.069 243.941 109.206 237.864 C 115.345 231.789 122.724 228.75 131.341 228.75 C 139.961 228.75 147.309 231.819 153.385 237.956 C 159.461 244.095 162.5 251.474 162.5 260.091 C 162.5 268.711 159.431 276.059 153.294 282.135 C 147.155 288.211 139.776 291.25 131.159 291.25 Z M 131.159 385 C 122.539 385 115.191 381.931 109.114 375.794 C 103.039 369.655 100 362.276 100 353.659 C 100 345.039 103.069 337.691 109.206 331.614 C 115.345 325.539 122.724 322.5 131.341 322.5 C 139.961 322.5 147.309 325.569 153.385 331.706 C 159.461 337.845 162.5 345.224 162.5 353.841 C 162.5 362.461 159.431 369.809 153.294 375.885 C 147.155 381.961 139.776 385 131.159 385 Z" style="fill: rgb(255, 255, 255);" transform="matrix(1, 0, 0, 1, -1.1368683772161603e-13, 0)"/>
</svg>