<?xml version="1.0" encoding="utf-8"?>
<svg viewBox="0 0 525 525" xmlns="http://www.w3.org/2000/svg">
  <g>
    <title>Layer 1</title>
    <path id="path-1" d="M 203 0 L 323 0 C 434 0 525 90 525 203 L 525 323 C 525 434 435 525 322 525 L 202 525 C 92 525 0 435 0 322 L 0 202 C 0 92 90 0 203 0 Z" style="fill: rgb(71, 181, 189);">
      <title>red</title>
    </path>
  </g>
  <path d="M 178.014 400 C 170.276 400 163.672 397.243 158.203 391.728 C 152.734 386.213 150 379.584 150 371.841 L 150 315.522 C 150 307.778 152.755 301.172 158.266 295.703 C 163.777 290.234 170.402 287.5 178.141 287.5 L 346.986 287.5 C 354.725 287.5 361.328 290.257 366.797 295.772 C 372.266 301.286 375 307.916 375 315.659 L 375 371.978 C 375 379.722 372.245 386.328 366.734 391.797 C 361.223 397.266 354.598 400 346.859 400 L 178.014 400 Z M 192.177 343.75 L 332.7 343.75 C 336.681 343.75 340.039 342.41 342.773 339.731 C 345.508 337.051 346.875 333.731 346.875 329.77 C 346.875 325.809 345.529 322.461 342.835 319.727 C 340.142 316.992 336.804 315.625 332.823 315.625 L 192.3 315.625 C 188.319 315.625 184.961 316.964 182.227 319.644 C 179.492 322.324 178.125 325.644 178.125 329.605 C 178.125 333.566 179.472 336.914 182.165 339.648 C 184.859 342.383 188.196 343.75 192.177 343.75 Z M 251.172 271.875 L 190.625 188.281 C 188.542 185.416 187.045 182.096 186.133 178.32 C 185.221 174.544 185.026 170.833 185.547 167.188 C 188.672 147.396 197.136 131.25 210.938 118.75 C 224.74 106.25 241.927 100 262.5 100 C 283.073 100 300.261 106.25 314.063 118.75 C 327.865 131.25 336.328 147.396 339.453 167.188 C 339.974 170.833 339.779 174.544 338.867 178.32 C 337.956 182.096 336.459 185.416 334.375 188.281 L 273.828 271.875 C 270.964 275.781 267.188 277.734 262.5 277.734 C 257.813 277.734 254.037 275.781 251.172 271.875 Z M 262.5 239.844 L 312.891 170.703 C 310.807 158.203 305.013 147.982 295.508 140.039 C 286.003 132.096 275 128.125 262.5 128.125 C 250 128.125 239.063 132.096 229.688 140.039 C 220.313 147.982 214.584 158.203 212.5 170.703 L 262.5 239.844 Z M 262.891 183.984 Z" style="fill: rgb(255, 255, 255);"/>
</svg>