<?xml version="1.0" encoding="utf-8"?>
<svg viewBox="0 0 525 525" xmlns="http://www.w3.org/2000/svg">
  <g transform="matrix(1, 0, 0, 1, 0, 1.1368683772161603e-13)">
    <title>Layer 1</title>
    <path id="svg_1" d="m203,0l120,0c111,0 202,90 202,203l0,120c0,111 -90,202 -203,202l-120,0c-110,0 -202,-90 -202,-203l0,-120c0,-110 90,-202 203,-202z" fill="#7882ff"/>
  </g>
  <path d="M 364.942 403.671 L 288.651 327.378 L 324.855 291.171 L 401.15 367.466 C 406.033 372.349 408.476 378.384 408.476 385.57 C 408.476 392.752 406.033 398.787 401.15 403.671 C 396.262 408.557 390.229 411 383.047 411 C 375.861 411 369.828 408.557 364.942 403.671 Z M 127.011 403.671 C 122.128 398.787 119.682 392.752 119.682 385.57 C 119.682 378.384 122.128 372.349 127.011 367.466 L 227.872 266.605 L 198.563 237.294 C 195.401 240.454 191.381 242.035 186.494 242.035 C 181.61 242.035 177.583 240.454 174.425 237.294 L 164.512 227.379 L 164.512 266.173 C 164.512 270.195 162.788 272.925 159.34 274.361 C 155.89 275.8 152.728 275.082 149.857 272.206 L 102.871 225.223 C 100 222.349 99.281 219.19 100.718 215.742 C 102.154 212.294 104.883 210.569 108.908 210.569 L 147.701 210.569 L 138.218 201.087 C 134.77 197.639 133.047 193.616 133.047 189.017 C 133.047 184.419 134.77 180.396 138.218 176.952 L 187.356 127.812 C 193.104 122.062 199.281 117.896 205.89 115.31 C 212.5 112.723 219.252 111.431 226.149 111.431 C 231.895 111.431 237.282 112.294 242.313 114.017 C 247.341 115.742 252.299 118.329 257.182 121.775 C 259.482 123.213 260.705 125.224 260.848 127.812 C 260.992 130.396 260.056 132.695 258.045 134.706 L 225.288 167.465 L 234.77 176.952 C 237.929 180.109 239.512 184.131 239.512 189.017 C 239.512 193.901 237.929 197.926 234.77 201.087 L 264.079 230.396 L 302.871 191.604 C 301.723 188.444 300.79 185.137 300.072 181.69 C 299.353 178.241 298.994 174.794 298.994 171.345 C 298.994 154.392 304.813 140.095 316.448 128.457 C 328.088 116.819 342.383 111 359.339 111 C 361.636 111 363.794 111.073 365.804 111.216 C 367.816 111.359 369.828 111.719 371.839 112.294 C 374.424 113.154 376.077 114.949 376.795 117.681 C 377.515 120.411 376.866 122.781 374.856 124.794 L 346.84 152.811 C 345.115 154.534 344.251 156.546 344.251 158.845 C 344.251 161.143 345.115 163.156 346.84 164.881 L 365.804 183.847 C 367.527 185.569 369.539 186.432 371.839 186.432 C 374.139 186.432 376.149 185.569 377.872 183.847 L 405.892 155.829 C 407.901 153.817 410.272 153.096 413.004 153.672 C 415.733 154.248 417.528 155.972 418.39 158.845 C 418.964 160.857 419.323 162.869 419.469 164.881 C 419.611 166.89 419.682 169.048 419.682 171.345 C 419.682 188.299 413.864 202.595 402.228 214.231 C 390.589 225.871 376.293 231.69 359.339 231.69 C 355.89 231.69 352.443 231.401 348.995 230.829 C 345.547 230.252 342.24 229.247 339.078 227.81 L 163.219 403.671 C 158.334 408.557 152.296 411 145.116 411 C 137.93 411 131.895 408.557 127.011 403.671 Z" style="paint-order: stroke; stroke: rgb(255, 255, 255); fill: rgb(255, 255, 255);" transform="matrix(1, 0, 0, 1, 0, 1.1368683772161603e-13)"/>
</svg>