<?xml version="1.0" encoding="utf-8"?>
<svg viewBox="0 0 525 525" xmlns="http://www.w3.org/2000/svg">
  <g transform="matrix(1, 0, 0, 1, -1.1368683772161603e-13, 0)">
    <title>Layer 1</title>
    <path id="svg_1" d="m203,0l120,0c111,0 202,90 202,203l0,120c0,111 -90,202 -203,202l-120,0c-110,0 -202,-90 -202,-203l0,-120c0,-110 90,-202 203,-202z" fill="#7882ff"/>
  </g>
  <path d="M 288.043 307.5 C 292.004 307.5 295.352 306.152 298.086 303.457 C 300.82 300.762 302.188 297.422 302.188 293.438 L 302.188 255.938 L 339.688 255.938 C 343.672 255.938 347.012 254.598 349.707 251.918 C 352.402 249.239 353.75 245.918 353.75 241.957 C 353.75 237.996 352.402 234.648 349.707 231.914 C 347.012 229.18 343.672 227.813 339.688 227.813 L 302.188 227.813 L 302.188 190.313 C 302.188 186.328 300.848 182.988 298.168 180.293 C 295.489 177.598 292.168 176.25 288.207 176.25 C 284.247 176.25 280.898 177.598 278.164 180.293 C 275.43 182.988 274.063 186.328 274.063 190.313 L 274.063 227.813 L 236.563 227.813 C 232.578 227.813 229.238 229.152 226.543 231.832 C 223.848 234.511 222.5 237.832 222.5 241.793 C 222.5 245.754 223.848 249.102 226.543 251.836 C 229.238 254.57 232.578 255.938 236.563 255.938 L 274.063 255.938 L 274.063 293.438 C 274.063 297.422 275.402 300.762 278.082 303.457 C 280.761 306.152 284.082 307.5 288.043 307.5 Z M 194.375 363.75 C 186.641 363.75 180.02 360.996 174.512 355.488 C 169.004 349.98 166.25 343.359 166.25 335.625 L 166.25 148.125 C 166.25 140.391 169.004 133.77 174.512 128.262 C 180.02 122.754 186.641 120 194.375 120 L 381.875 120 C 389.609 120 396.23 122.754 401.738 128.262 C 407.246 133.77 410 140.391 410 148.125 L 410 335.625 C 410 343.359 407.246 349.98 401.738 355.488 C 396.23 360.996 389.609 363.75 381.875 363.75 L 194.375 363.75 Z M 194.375 335.625 L 381.875 335.625 L 381.875 148.125 L 194.375 148.125 L 194.375 335.625 Z M 138.125 420 C 130.391 420 123.77 417.246 118.262 411.738 C 112.754 406.23 110 399.609 110 391.875 L 110 190.313 C 110 186.328 111.34 182.988 114.019 180.293 C 116.699 177.598 120.019 176.25 123.98 176.25 C 127.941 176.25 131.289 177.598 134.023 180.293 C 136.758 182.988 138.125 186.328 138.125 190.313 L 138.125 391.875 L 339.688 391.875 C 343.672 391.875 347.012 393.215 349.707 395.894 C 352.402 398.574 353.75 401.894 353.75 405.855 C 353.75 409.816 352.402 413.164 349.707 415.898 C 347.012 418.633 343.672 420 339.688 420 L 138.125 420 Z M 194.375 148.125 L 194.375 335.625 L 194.375 148.125 Z" style="fill: rgb(255, 255, 255);" transform="matrix(1, 0, 0, 1, -1.1368683772161603e-13, 0)"/>
</svg>