<?xml version="1.0" encoding="utf-8"?>
<svg viewBox="0 0 525 525" xmlns="http://www.w3.org/2000/svg">
  <g>
    <title>Layer 1</title>
    <path id="path-1" d="M 203 0 L 323 0 C 434 0 525 90 525 203 L 525 323 C 525 434 435 525 322 525 L 202 525 C 92 525 0 435 0 322 L 0 202 C 0 92 90 0 203 0 Z" style="fill: rgb(25, 177, 212);">
      <title>red</title>
    </path>
  </g>
  <path d="M 190 330 C 169.25 330 151.563 322.688 136.938 308.063 C 122.313 293.438 115 275.75 115 255 C 115 234.25 122.313 216.563 136.938 201.938 C 151.563 187.313 169.25 180 190 180 L 235 180 C 239.25 180 242.812 181.437 245.688 184.313 C 248.562 187.188 250 190.75 250 195 C 250 199.25 248.562 202.812 245.688 205.688 C 242.812 208.563 239.25 210 235 210 L 190 210 C 177.5 210 166.875 214.375 158.125 223.125 C 149.375 231.875 145 242.5 145 255 C 145 267.5 149.375 278.125 158.125 286.875 C 166.875 295.625 177.5 300 190 300 L 235 300 C 239.25 300 242.812 301.437 245.688 304.313 C 248.562 307.188 250 310.75 250 315 C 250 319.25 248.562 322.812 245.688 325.688 C 242.812 328.563 239.25 330 235 330 L 190 330 Z M 220 270 C 215.75 270 212.187 268.563 209.313 265.688 C 206.437 262.812 205 259.25 205 255 C 205 250.75 206.437 247.188 209.313 244.313 C 212.187 241.437 215.75 240 220 240 L 310 240 C 314.25 240 317.812 241.437 320.688 244.313 C 323.562 247.188 325 250.75 325 255 C 325 259.25 323.562 262.812 320.688 265.688 C 317.812 268.563 314.25 270 310 270 L 220 270 Z M 295 330 C 290.75 330 287.187 328.563 284.313 325.688 C 281.437 322.812 280 319.25 280 315 C 280 310.75 281.437 307.188 284.313 304.313 C 287.187 301.437 290.75 300 295 300 L 340 300 C 352.5 300 363.125 295.625 371.875 286.875 C 380.625 278.125 385 267.5 385 255 C 385 242.5 380.625 231.875 371.875 223.125 C 363.125 214.375 352.5 210 340 210 L 295 210 C 290.75 210 287.187 208.563 284.313 205.688 C 281.437 202.812 280 199.25 280 195 C 280 190.75 281.437 187.188 284.313 184.313 C 287.187 181.437 290.75 180 295 180 L 340 180 C 360.75 180 378.438 187.313 393.063 201.938 C 407.688 216.563 415 234.25 415 255 C 415 275.75 407.688 293.438 393.063 308.063 C 378.438 322.688 360.75 330 340 330 L 295 330 Z" style="fill: rgb(255, 255, 255);"/>
</svg>