<?xml version="1.0" encoding="utf-8"?>
<svg viewBox="0 0 525 525" xmlns="http://www.w3.org/2000/svg">
  <g>
    <title>Layer 1</title>
    <path id="svg_1" d="m203,0l120,0c111,0 202,90 202,203l0,120c0,111 -90,202 -203,202l-120,0c-110,0 -202,-90 -202,-203l0,-120c0,-110 90,-202 203,-202z" style="fill: rgb(72, 189, 84);"/>
  </g>
  <path d="M 231.195 336.927 C 200.617 336.927 174.439 326.117 152.664 304.495 C 130.888 282.874 120 256.774 120 226.195 C 120 219.091 120.541 212.219 121.622 205.578 C 122.703 198.937 124.788 192.373 127.876 185.887 C 129.112 183.416 130.777 181.331 132.87 179.632 C 134.965 177.933 137.268 176.775 139.78 176.157 C 142.293 175.54 144.875 175.617 147.527 176.389 C 150.179 177.161 152.587 178.628 154.749 180.791 L 204.323 230.365 L 236.755 197.933 L 187.644 148.822 C 185.448 146.625 183.972 144.223 183.216 141.615 C 182.462 139.007 182.393 136.467 183.011 133.996 C 183.629 131.525 184.787 129.131 186.486 126.815 C 188.185 124.498 190.424 122.722 193.204 121.486 C 199.381 119.016 205.662 117.317 212.045 116.39 C 218.429 115.463 224.812 115 231.195 115 C 262.083 115 288.338 125.965 309.959 147.895 C 331.58 169.825 342.391 196.109 342.391 226.745 C 342.391 233.792 341.696 240.326 340.306 246.35 C 338.916 252.373 336.986 258.473 334.514 264.65 L 409.108 338.781 C 418.066 347.738 422.544 358.429 422.544 370.854 C 422.544 383.278 418.066 393.78 409.108 402.359 C 400.151 410.938 389.572 415.15 377.371 414.996 C 365.171 414.842 354.746 410.44 346.097 401.791 L 273.357 329.051 C 267.18 331.522 260.462 333.453 253.203 334.843 C 245.945 336.232 238.608 336.927 231.195 336.927 Z M 231.195 303.569 C 236.447 303.569 243.705 302.488 252.971 300.326 C 262.237 298.163 270.886 293.839 278.917 287.353 L 369.726 378.162 C 371.889 380.325 374.437 381.406 377.371 381.406 C 380.306 381.406 383.008 380.247 385.479 377.931 C 387.95 375.614 389.185 372.989 389.185 370.054 C 389.185 367.12 387.95 364.417 385.479 361.946 L 294.206 271.6 C 300.384 264.187 304.399 256.079 306.252 247.276 C 308.106 238.473 309.032 231.601 309.032 226.659 C 309.032 206.012 301.696 188.031 287.025 172.718 C 272.353 157.405 254.67 149.285 233.975 148.359 L 271.967 185.887 C 275.365 189.341 277.063 193.371 277.063 197.975 C 277.063 202.58 275.32 206.614 271.833 210.077 L 216.04 265.479 C 212.553 268.942 208.619 270.674 204.239 270.674 C 199.859 270.674 196.026 268.975 192.74 265.577 L 153.359 226.195 C 153.359 247.508 161.003 265.731 176.293 280.866 C 191.582 296.002 209.883 303.569 231.195 303.569 Z M 271.967 265.577 Z" style="fill: rgb(255, 255, 255);"/>
</svg>